<svg width="37" height="25" viewBox="0 0 37 25" fill="none" xmlns="http://www.w3.org/2000/svg">
<path d="M25.0758 19.0154C25.1326 18.9933 25.1818 18.9486 25.2457 18.9411C25.2502 18.9325 25.2567 18.9251 25.2649 18.9197C25.273 18.9143 25.2823 18.9111 25.292 18.9104C25.3977 18.9114 25.4505 18.8244 25.5178 18.7797C25.5239 18.7662 25.5262 18.7513 25.5245 18.7366C25.6956 18.6264 25.8806 18.54 26.0746 18.4798C26.3653 18.2996 26.6597 18.1145 26.9577 17.9245C27.0289 17.8781 27.1139 17.8579 27.198 17.8674L27.4904 17.6708L27.539 17.6988C27.6645 17.5937 27.7887 17.4775 27.9748 17.5457C28.0421 17.501 28.1077 17.4502 28.1944 17.4663L28.3705 17.3408C28.8037 17.1471 29.1513 16.81 29.6034 16.6376C30.0227 16.4406 30.4038 16.1699 30.7285 15.8382C31.0076 15.6667 31.2691 15.4679 31.5093 15.2447L31.8013 15.0217C31.8027 15.0119 31.8074 15.0029 31.8146 14.9961C31.8218 14.9893 31.8311 14.9852 31.841 14.9845C31.8588 14.9087 31.9541 14.8828 31.9812 14.8044L32.0193 14.7925C32.0414 14.7833 32.0611 14.7691 32.0769 14.7511C32.0927 14.733 32.1042 14.7116 32.1104 14.6884C32.1132 14.6781 32.1187 14.6687 32.1262 14.6612C32.1338 14.6536 32.1431 14.6482 32.1534 14.6454C32.2173 14.4943 32.4047 14.4615 32.4787 14.311C32.5001 14.2738 32.5411 14.2478 32.5742 14.2174C32.5958 14.1306 32.705 14.1075 32.7188 14.0163C32.7245 13.9256 32.8454 13.9092 32.8319 13.8205C32.8454 13.797 32.8613 13.7696 32.8551 13.7399C32.8682 13.7342 32.8799 13.7256 32.8894 13.7148C32.8988 13.7039 32.9056 13.6911 32.9094 13.6773C32.9134 13.6592 32.9229 13.6428 32.9365 13.6303C32.944 13.6175 32.9479 13.6029 32.9478 13.5881C32.9476 13.5733 32.9435 13.5588 32.9357 13.5463C32.9425 13.5345 32.9504 13.5208 32.9728 13.5181C32.9707 13.4896 32.9756 13.4611 32.9871 13.4349C32.9986 13.4088 33.0163 13.3858 33.0386 13.3681C33.0369 13.3393 33.0426 13.3104 33.0549 13.2842C33.0673 13.2581 33.0861 13.2354 33.1095 13.2184C33.1102 13.1896 33.1182 13.1615 33.1326 13.1365C33.147 13.1115 33.1674 13.0905 33.192 13.0755L33.2015 13.0052C33.2316 12.9906 33.2549 12.9647 33.2664 12.9331C33.2697 12.914 33.2798 12.8966 33.2947 12.8841C33.3252 12.8313 33.3741 12.7916 33.3851 12.7275C33.3847 12.6698 33.4371 12.6374 33.4631 12.5924C33.4676 12.5712 33.4787 12.552 33.4948 12.5376C33.5231 12.4886 33.5669 12.4486 33.5807 12.3888C33.5852 12.3676 33.5963 12.3484 33.6124 12.3339C33.6171 12.3235 33.6198 12.3122 33.6202 12.3008C33.6205 12.2894 33.6186 12.278 33.6145 12.2673C33.6355 12.2646 33.655 12.2551 33.6701 12.2402C33.6852 12.2254 33.6951 12.206 33.6983 12.1851C33.6971 12.1758 33.6991 12.1664 33.7037 12.1582C33.7084 12.1501 33.7157 12.1437 33.7243 12.1401C33.7548 12.0872 33.8048 12.0456 33.8159 11.9815C33.8165 11.8905 33.9433 11.8775 33.9289 11.7857C33.956 11.7387 33.9987 11.7007 34.0092 11.6466C34.0098 11.6369 34.0127 11.6274 34.0176 11.6189C34.0225 11.6104 34.0293 11.6031 34.0374 11.5977C34.068 11.5448 34.1218 11.5054 34.1279 11.4411C34.1356 11.3828 34.1833 11.3451 34.2104 11.2981C34.2061 11.2068 34.3328 11.1939 34.3234 11.1023C34.337 11.0475 34.3933 11.0173 34.4048 10.9613C34.4055 10.9515 34.4083 10.942 34.4132 10.9335C34.4181 10.925 34.4249 10.9178 34.4331 10.9124C34.4625 10.8615 34.5163 10.8221 34.5235 10.7557C34.5405 10.7264 34.5369 10.6877 34.5499 10.6561C34.5483 10.623 34.5518 10.5897 34.5602 10.5576C34.5623 10.5468 34.5604 10.5356 34.5548 10.5262C34.5493 10.5168 34.5405 10.5097 34.5302 10.5063C34.5404 10.4987 34.5477 10.4879 34.5511 10.4756C34.5544 10.4633 34.5535 10.4502 34.5485 10.4386C34.5417 10.4332 34.5363 10.4262 34.5328 10.4183C34.5292 10.4103 34.5277 10.4016 34.5282 10.3929C34.5185 10.3432 34.4974 10.2964 34.4665 10.2564C34.4356 10.2163 34.3958 10.1841 34.3503 10.1623C34.3416 10.1623 34.3331 10.16 34.3256 10.1557C34.3181 10.1514 34.3119 10.1451 34.3075 10.1376C34.2747 10.112 34.2332 10.1003 34.1917 10.1047C34.1577 10.0948 34.1225 10.0894 34.087 10.0886C34.0524 10.0795 34.0165 10.0764 33.9808 10.0795C33.9656 10.0747 33.9495 10.074 33.9339 10.0773C33.9183 10.0807 33.9039 10.0881 33.8919 10.0987L33.8725 10.0874C33.7691 10.1452 33.6599 10.0874 33.5541 10.1046C33.5472 10.0948 33.5382 10.0866 33.5278 10.0806C33.5174 10.0746 33.5058 10.0709 33.4938 10.0698C33.487 10.0533 33.4774 10.038 33.4654 10.0247L33.4164 10.0513C33.4062 10.0329 33.3929 10.0164 33.3772 10.0025C33.3587 10.0109 33.3409 10.0207 33.3239 10.0318L33.2794 9.9878C33.2607 9.99798 33.2428 10.0095 33.2258 10.0222L33.1824 9.97618C33.1631 9.98592 33.1446 9.99703 33.1269 10.0094L33.0818 9.95729L33.0252 9.99248L32.9798 9.94539L32.9213 9.97946C32.9027 9.97128 32.8851 9.96112 32.8688 9.94915C32.8526 9.9582 32.8341 9.96192 32.8157 9.95978C32.7974 9.95764 32.7803 9.94976 32.7668 9.93726C32.7505 9.94639 32.7319 9.9505 32.7133 9.94908C32.6948 9.94766 32.6771 9.94077 32.6625 9.92927L32.5599 9.92745C32.4389 9.96 32.3111 9.95375 32.1943 9.90959C32.1789 9.91953 32.1609 9.92467 32.1426 9.92434C32.1243 9.92402 32.1066 9.91825 32.0917 9.90777C32.0676 9.92235 32.0408 9.9316 32.0129 9.9349C31.9851 9.93819 31.9569 9.93545 31.9303 9.92686L31.827 9.93512C31.8043 9.95222 31.7776 9.96323 31.7495 9.96711C31.7214 9.97099 31.6928 9.96761 31.6664 9.95729C31.6432 9.97331 31.6166 9.98367 31.5887 9.98752C31.5608 9.99137 31.5324 9.98861 31.5059 9.97947L31.4015 9.98968L31.2957 10.0382C31.2894 10.0294 31.2813 10.022 31.2719 10.0166C31.2625 10.0112 31.252 10.0079 31.2412 10.0068C31.1828 9.99134 31.1361 10.0453 31.0792 10.036C31.0443 10.0266 31.0073 10.0269 30.9724 10.037C30.9199 10.0067 30.869 10.0634 30.8149 10.0583C30.7595 10.042 30.7144 10.1021 30.6586 10.0777C30.6239 10.0838 30.5883 10.0737 30.5545 10.0829C30.4991 10.0665 30.4516 10.1174 30.3967 10.1092C30.3053 10.1048 30.2137 10.1124 30.1242 10.1321C30.0642 10.1104 30.0178 10.1594 29.9611 10.1632C29.9018 10.1447 29.8574 10.1947 29.8002 10.1904C29.7353 10.1817 29.685 10.2283 29.6258 10.2411C29.6202 10.2495 29.612 10.2559 29.6026 10.2594C29.5931 10.2628 29.5828 10.2632 29.5732 10.2604C29.5188 10.2603 29.4747 10.3053 29.4183 10.3041C29.3244 10.2917 29.2749 10.391 29.187 10.3951C29.1814 10.4034 29.1735 10.4099 29.1643 10.4139C29.1551 10.4178 29.145 10.4191 29.1352 10.4174C29.0526 10.4167 29.0073 10.5132 28.92 10.5072C28.8242 10.4937 28.7735 10.5949 28.6864 10.6021C28.6824 10.6103 28.6759 10.617 28.6678 10.6213C28.6597 10.6256 28.6506 10.6271 28.6416 10.6258C28.6158 10.624 28.5899 10.6301 28.5675 10.6432C28.5451 10.6564 28.5272 10.676 28.516 10.6996C28.518 10.71 28.5207 10.7203 28.5242 10.7304L28.3969 10.8161L28.3872 10.8105C28.3559 10.8042 28.3235 10.8062 28.2931 10.8163L28.1272 10.9241C28.1148 10.9456 28.1023 10.9672 28.091 10.9868L27.7986 11.1834L27.7343 11.1646L27.565 11.2783L27.2848 11.5212L27.1691 11.6137L26.8085 11.8702L26.7079 11.9635C26.6836 12.0774 26.5307 12.0909 26.513 12.2113C26.4965 12.3297 26.3774 12.3654 26.3254 12.4554L25.9797 12.731L25.5128 13.0906C25.4789 13.118 25.4469 13.1465 25.4137 13.177C25.3806 13.2075 25.3259 13.2751 25.2998 13.3384C25.2529 13.3459 25.209 13.3667 25.1732 13.3984C25.1375 13.43 25.1115 13.4711 25.0982 13.517C25.075 13.6289 24.9193 13.6382 24.9086 13.76C24.8506 13.9144 24.6498 13.9343 24.5931 14.1C24.5829 14.1188 24.5662 14.1333 24.5462 14.1408C24.5435 14.1517 24.5439 14.1632 24.5473 14.174C24.5507 14.1847 24.557 14.1942 24.5655 14.2015L24.3083 14.4316C24.272 14.5281 24.2061 14.6108 24.1202 14.6676L24.1413 14.7163C24.0899 14.765 24.0404 14.8147 23.989 14.8634L24.0171 14.9135L24.0114 14.9233C23.9958 14.9176 23.9794 14.9143 23.9627 14.9135C23.9014 14.9747 23.803 15.0014 23.7867 15.1016C23.7836 15.1104 23.7782 15.1182 23.7711 15.1242C23.764 15.1302 23.7554 15.1342 23.7462 15.1357C23.7227 15.2213 23.6135 15.2444 23.6036 15.3379C23.5824 15.451 23.4266 15.4603 23.4171 15.5801C23.4016 15.6338 23.345 15.669 23.3462 15.7298C23.3308 15.7835 23.2753 15.8167 23.2648 15.8708C23.2552 15.9278 23.1978 15.96 23.194 16.0204C23.1273 16.1359 23.0431 16.2414 22.9939 16.367C22.9823 16.423 22.9299 16.4554 22.9125 16.508C22.9159 16.529 22.9273 16.5478 22.9445 16.5604L22.9377 16.5721C22.9251 16.5825 22.9167 16.5971 22.9139 16.6132C22.8923 16.627 22.8715 16.642 22.8517 16.6582C22.856 16.7495 22.7895 16.7973 22.7386 16.854C22.7473 16.8735 22.7538 16.8939 22.758 16.9148C22.7376 16.9501 22.6998 16.9752 22.6697 17.0048C22.6784 17.0214 22.6858 17.0388 22.6916 17.0567C22.6452 17.1056 22.5988 17.1545 22.5505 17.2023C22.547 17.2304 22.5379 17.2576 22.5237 17.2822C22.5096 17.3067 22.4906 17.3282 22.468 17.3452C22.4661 17.3738 22.4577 17.4015 22.4434 17.4263C22.4291 17.4511 22.4092 17.4723 22.3855 17.4882C22.3856 17.5175 22.3779 17.5465 22.3632 17.5719C22.3485 17.5974 22.3273 17.6185 22.3018 17.6331C22.2634 17.819 22.1741 17.9908 22.044 18.1291C22.044 18.2533 22.0087 18.3751 21.9423 18.4803C22.0151 18.6005 22.0439 18.7426 22.0238 18.8824C22.0627 18.946 22.0796 19.0209 22.0718 19.0955L22.0602 19.0888C22.0353 19.0926 22.0124 19.1046 21.9948 19.1227C21.9773 19.1409 21.9662 19.1643 21.9632 19.1894C21.9625 19.249 21.9078 19.2853 21.8973 19.3394C21.8916 19.3987 21.8311 19.4316 21.8253 19.491C21.8222 19.5226 21.8155 19.5538 21.8054 19.5839C21.7937 19.604 21.7782 19.6217 21.7598 19.6359C21.7429 19.6653 21.7445 19.7028 21.7373 19.7378C21.7272 19.7555 21.7131 19.7706 21.6962 19.782C21.6922 19.7889 21.6896 19.7966 21.6888 19.8046C21.6879 19.8125 21.6887 19.8206 21.6912 19.8282C21.6937 19.8358 21.6977 19.8428 21.7031 19.8487C21.7085 19.8546 21.7151 19.8592 21.7224 19.8623C21.716 19.876 21.7084 19.8891 21.6998 19.9015L21.6968 20.0459C21.6271 20.1128 21.8192 20.678 22.0042 20.555C22.1893 20.4321 22.364 20.2641 22.6256 20.3499C22.6753 20.3589 22.7265 20.3535 22.7734 20.3343C22.8203 20.3152 22.8609 20.283 22.8903 20.2416C23.112 20.0705 23.3625 19.941 23.6296 19.8591C23.8194 19.8356 23.8994 19.6207 24.0832 19.5988C24.0976 19.5824 24.1157 19.5696 24.1359 19.5614C24.1716 19.5583 24.2062 19.5467 24.2367 19.5275C24.2671 19.5083 24.2926 19.4821 24.311 19.451L24.3192 19.4818L24.3554 19.4819C24.5207 19.465 24.593 19.277 24.7477 19.2515L24.8565 19.1707C24.8998 19.1655 24.9413 19.1499 24.9775 19.1255C25.0137 19.101 25.0437 19.0682 25.0648 19.0299C25.0688 19.0253 25.0725 19.0205 25.0758 19.0154ZM36.17 20.6508C36.1523 20.6531 36.1342 20.6514 36.1173 20.6457C36.1004 20.64 36.085 20.6305 36.0723 20.6179C36.0434 20.623 36.0138 20.6217 35.9855 20.614C35.9572 20.6062 35.9311 20.5923 35.9089 20.5731L35.9033 20.5829C35.8825 20.558 35.8536 20.5413 35.8216 20.5358C35.7905 20.5178 35.7575 20.4987 35.7235 20.4948C35.6686 20.4866 35.6529 20.4149 35.5913 20.4184C35.586 20.4194 35.5806 20.4185 35.5759 20.4158C35.5713 20.4132 35.5678 20.4089 35.566 20.4038C35.5587 20.3975 35.5495 20.3938 35.5398 20.3935C35.5301 20.3931 35.5206 20.396 35.5127 20.4018L35.4302 20.3202C35.4123 20.3206 35.3945 20.3173 35.3779 20.3104C35.3613 20.3035 35.3464 20.2933 35.334 20.2803C35.2982 20.2834 35.2628 20.2723 35.2352 20.2494C35.2167 20.2515 35.198 20.2488 35.1808 20.2416C35.1636 20.2345 35.1486 20.223 35.137 20.2084C35.1184 20.2073 35.1002 20.2018 35.084 20.1925C35.0678 20.1831 35.054 20.1702 35.0437 20.1545C34.9941 20.1509 34.9477 20.1287 34.9137 20.0925C34.9029 20.0987 34.8914 20.1035 34.8795 20.1067L34.8144 20.0534C34.7779 20.0552 34.7416 20.0485 34.7082 20.0337C34.6749 20.019 34.6455 19.9967 34.6222 19.9686C34.6038 19.9682 34.5857 19.9632 34.5698 19.954C34.5538 19.9448 34.5404 19.9317 34.5309 19.9159L34.4945 19.934L34.4008 19.8538C34.3891 19.8577 34.3777 19.8625 34.3667 19.868L34.3041 19.8058L34.2685 19.827L34.1421 19.7541L34.1077 19.7734C34.1035 19.7678 34.0983 19.7631 34.0922 19.7597C34.0862 19.7562 34.0796 19.754 34.0727 19.7531L34.0112 19.689C33.9931 19.6874 33.9755 19.6818 33.9597 19.6727C33.9439 19.6636 33.9303 19.6511 33.9199 19.6362C33.9018 19.6376 33.8837 19.6349 33.8668 19.6283C33.85 19.6218 33.8348 19.6115 33.8225 19.5983L33.7196 19.6015L33.6574 19.5969L33.5893 19.5576C33.5605 19.5631 33.5308 19.5617 33.5026 19.5536C33.4744 19.5455 33.4486 19.5309 33.4271 19.5109L33.3173 19.5259C33.2572 19.4729 33.1677 19.4708 33.1229 19.4137C33.0433 19.4136 32.9647 19.3967 32.8923 19.3641L32.8269 19.3472C32.7984 19.3545 32.7685 19.3547 32.74 19.3478C32.7114 19.3409 32.6851 19.327 32.6632 19.3075C32.6458 19.3111 32.6278 19.3102 32.6109 19.305C32.5939 19.2998 32.5786 19.2904 32.5663 19.2777L32.5299 19.2958L32.4998 19.2627C32.4887 19.2674 32.4767 19.2689 32.4649 19.2672C32.4531 19.2654 32.442 19.2605 32.4329 19.2529C32.4205 19.2597 32.4088 19.2679 32.3981 19.2772L32.2677 19.2202L32.2039 19.2094C32.1596 19.2042 32.1152 19.2003 32.0707 19.1978C32.0601 19.2034 32.0482 19.206 32.0363 19.2051C32.0244 19.2043 32.013 19.2 32.0035 19.1929C31.9924 19.2023 31.98 19.2101 31.9668 19.2161L31.9337 19.197L31.8951 19.2191L31.862 19.2L31.7961 19.2063C31.7109 19.2642 31.6163 19.1991 31.5248 19.2272L31.393 19.1772C31.3128 19.1845 31.2324 19.1672 31.1624 19.1276C31.1519 19.1324 31.1402 19.1339 31.1288 19.132C31.1175 19.1301 31.107 19.1248 31.0986 19.1169C31.0879 19.1221 31.0761 19.1244 31.0643 19.1235C31.0525 19.1227 31.0412 19.1187 31.0314 19.1121C30.9868 19.1102 30.9422 19.1097 30.8975 19.1105C30.8869 19.1156 30.8752 19.1177 30.8635 19.1165C30.8518 19.1153 30.8407 19.1109 30.8315 19.1037C30.8201 19.1116 30.8082 19.1187 30.7959 19.1249L30.7628 19.1058L30.7239 19.1329L30.6928 19.115C30.6675 19.1298 30.6394 19.139 30.6104 19.1421C30.5813 19.1451 30.552 19.1419 30.5244 19.1326C30.5149 19.1399 30.5034 19.1442 30.4915 19.1448C30.4796 19.1453 30.4678 19.1423 30.4577 19.1359C30.4059 19.1635 30.3455 19.1699 30.2894 19.1536L30.1837 19.184C30.1639 19.1742 30.1423 19.1689 30.1202 19.1682C30.0975 19.1639 30.0741 19.1646 30.0516 19.1703C30.0205 19.1524 29.9875 19.196 29.9516 19.1909C29.929 19.186 29.9054 19.1878 29.8838 19.1961C29.8507 19.1771 29.8181 19.2156 29.7837 19.2167C29.7276 19.2191 29.6717 19.2271 29.617 19.2406C29.5783 19.2313 29.551 19.2651 29.5136 19.267C29.4757 19.2608 29.4468 19.2885 29.413 19.2977C29.3537 19.2791 29.3286 19.3586 29.2748 19.3484C29.2377 19.3453 29.2104 19.3791 29.1722 19.378C29.1332 19.3737 29.1051 19.4045 29.0704 19.4106C29.0267 19.401 28.9963 19.4357 28.9594 19.4457C28.9565 19.4511 28.9518 19.4554 28.9462 19.4579C28.9405 19.4603 28.9343 19.4607 28.9284 19.4591C28.8751 19.4571 28.8525 19.5276 28.7957 19.5183C28.7405 19.5151 28.7152 19.5814 28.6588 19.5802C28.602 19.5709 28.5763 19.6423 28.5211 19.6391C28.4365 19.6555 28.3631 19.7019 28.28 19.7244C28.2441 19.7193 28.2194 19.7442 28.1911 19.7618L28.1775 19.754L28.0812 19.8263C28.077 19.8203 28.0715 19.8153 28.0651 19.8116C28.0587 19.808 28.0516 19.8057 28.0443 19.805C27.9994 19.7974 27.9682 19.829 27.9291 19.8429C27.8899 19.8569 27.9189 19.8605 27.9011 19.8555C27.8833 19.8504 27.8398 19.8853 27.8032 19.8903C27.7467 19.876 27.7207 19.9524 27.6658 19.9442C27.6226 19.9427 27.5906 19.9712 27.5534 19.9863C27.5511 19.9915 27.547 19.9957 27.5418 19.9981C27.5366 20.0004 27.5308 20.0007 27.5254 19.9989C27.4968 20.0017 27.4704 20.0154 27.4515 20.0371C27.4491 20.033 27.4457 20.0296 27.4416 20.0272C27.4375 20.0249 27.4329 20.0236 27.4281 20.0236C27.3671 20.0171 27.3387 20.0843 27.2829 20.0912C27.2799 20.0966 27.2755 20.101 27.2701 20.1039C27.2648 20.1068 27.2587 20.1081 27.2526 20.1077C27.2526 20.1077 27.2526 20.1077 27.2291 20.1124C27.2057 20.1171 27.2224 20.1241 27.219 20.13C27.2156 20.1359 27.219 20.13 27.219 20.13C27.1978 20.138 27.1792 20.1516 27.1651 20.1694L27.1238 20.1691C27.0678 20.1628 27.0425 20.2291 26.9889 20.2321C26.912 20.2217 26.8867 20.3193 26.8153 20.3173C26.7366 20.3189 26.705 20.405 26.6338 20.4161C26.6338 20.4191 26.6331 20.4221 26.6317 20.4248C26.6303 20.4274 26.6282 20.4297 26.6257 20.4314C26.6232 20.433 26.6203 20.434 26.6173 20.4343C26.6143 20.4346 26.6113 20.4341 26.6086 20.4329C26.5307 20.4376 26.4991 20.5237 26.4256 20.5387L26.3614 20.5826C26.2886 20.5875 26.262 20.674 26.1903 20.677C26.1513 20.6727 26.1285 20.6987 26.1084 20.729C26.0906 20.7264 26.0725 20.7297 26.0565 20.7381C25.9734 20.7293 25.9462 20.8259 25.8742 20.8339C25.8725 20.8398 25.8686 20.8449 25.8634 20.8481C25.8581 20.8514 25.8519 20.8526 25.8459 20.8515C25.7412 20.8667 25.7023 20.9879 25.6012 21.0104C25.5058 21.005 25.4754 21.1206 25.388 21.1328C25.291 21.1211 25.2641 21.244 25.1762 21.2481C25.0657 21.26 25.0284 21.3873 24.9234 21.4076C24.9216 21.4138 24.9177 21.4192 24.9123 21.4228C24.9069 21.4264 24.9004 21.4279 24.894 21.4271C24.87 21.4312 24.8473 21.4409 24.8276 21.4555C24.808 21.47 24.792 21.4889 24.7809 21.5107C24.782 21.5187 24.7846 21.5264 24.7886 21.5334L24.6129 21.6042L24.5818 21.5863C24.5263 21.6509 24.4277 21.6331 24.3711 21.6996L24.3381 21.6806C24.1757 21.7957 24.0122 21.9127 23.8468 22.0287C23.8157 22.0107 23.7798 22.037 23.7495 22.0535C23.7383 22.0446 23.7259 22.0374 23.7126 22.0322C23.6994 22.0458 23.6832 22.0561 23.6653 22.0621C23.6473 22.0681 23.6283 22.0697 23.6097 22.0667C23.5704 22.0989 23.5307 22.136 23.4742 22.1217C23.461 22.1354 23.4446 22.1455 23.4264 22.1511C23.4082 22.1566 23.389 22.1573 23.3705 22.1532C23.3353 22.1909 23.2869 22.2136 23.2356 22.2163L23.1385 22.2856L23.1107 22.3113L23.0712 22.3798L23.0628 22.4481L23.0402 22.4873L23.0108 22.5382L22.9803 22.591L23.0484 22.6303L23.1128 22.5996L23.1591 22.6002L23.351 22.591L23.5583 22.5958L23.6374 22.6023C23.8543 22.57 24.075 22.5771 24.2889 22.6234C24.4288 22.6615 24.5734 22.6799 24.7186 22.6783L25.2059 22.7951C25.2127 22.8041 25.2223 22.8107 25.2332 22.8137C25.2441 22.8167 25.2558 22.816 25.2663 22.8117C25.2796 22.8248 25.2961 22.8343 25.3141 22.8392C25.3321 22.8441 25.3511 22.8443 25.3693 22.8398C25.6455 22.9653 25.9375 23.0531 26.2374 23.1008C26.2409 23.1115 26.2469 23.1212 26.2547 23.1291C26.4775 23.3016 26.7436 23.4092 27.0239 23.4401C27.446 23.4667 27.8663 23.515 28.2831 23.5849C28.3232 23.5559 28.3721 23.5421 28.4212 23.546C28.4702 23.55 28.5162 23.5713 28.5507 23.6063L28.7487 23.6135C28.7589 23.6071 28.7706 23.6036 28.7825 23.6036C28.7945 23.6036 28.8062 23.6069 28.8163 23.6133C28.8262 23.6068 28.8379 23.6035 28.8498 23.6039C28.8616 23.6042 28.8731 23.6081 28.8826 23.6151C28.946 23.5682 29.021 23.6089 29.0898 23.5885L29.2491 23.6179C29.2584 23.6102 29.2696 23.6054 29.2815 23.6039C29.2934 23.6025 29.3054 23.6044 29.3162 23.6096C29.392 23.5411 29.4723 23.6579 29.5502 23.6037C29.6299 23.6497 29.7401 23.6115 29.8121 23.6844C29.8299 23.6803 29.8484 23.6812 29.8656 23.687C29.8829 23.6929 29.8981 23.7033 29.9098 23.7173C29.9211 23.7128 29.9335 23.7118 29.9454 23.7145C29.9573 23.7171 29.968 23.7233 29.9763 23.7322C29.9859 23.7242 29.9961 23.717 30.0069 23.7107L30.0458 23.7332L30.1113 23.7319C30.1211 23.7248 30.1326 23.7206 30.1446 23.7197C30.1565 23.7188 30.1685 23.7212 30.1792 23.7266C30.2551 23.7023 30.336 23.6985 30.4136 23.7158C30.4233 23.7093 30.4346 23.7057 30.4462 23.7055C30.4578 23.7052 30.4692 23.7084 30.4791 23.7145C30.4995 23.7013 30.5234 23.6945 30.5476 23.695C30.5718 23.6954 30.5952 23.7032 30.6149 23.7172L30.6791 23.7229C30.7327 23.7019 30.7912 23.6975 30.8471 23.7102C30.8557 23.6978 30.8633 23.6847 30.8697 23.671L30.9086 23.6935C30.9604 23.6659 31.0208 23.6595 31.0769 23.6758C31.092 23.6662 31.109 23.6597 31.1267 23.6569C31.1443 23.6541 31.1624 23.655 31.1797 23.6594L31.2439 23.6469C31.2582 23.6357 31.2749 23.6281 31.2926 23.6247C31.3104 23.6213 31.3286 23.6223 31.3459 23.6275C31.3597 23.6155 31.3764 23.6074 31.3944 23.604C31.4123 23.6006 31.4307 23.602 31.4479 23.608L31.5152 23.5947C31.5446 23.5734 31.5807 23.5636 31.6166 23.5671L31.7184 23.5031C31.7105 23.5168 31.7288 23.53 31.7514 23.5222C31.7893 23.5284 31.8186 23.4957 31.8529 23.4946C31.8927 23.502 31.922 23.4693 31.9555 23.4651C32.0151 23.4786 32.0388 23.4062 32.094 23.4093C32.1508 23.4186 32.1765 23.3473 32.2317 23.3504C32.3645 23.3044 32.5017 23.2688 32.6378 23.2351C32.6923 23.2665 32.7219 23.1792 32.776 23.1843C32.8301 23.1895 32.8432 23.1578 32.8786 23.1548C32.9117 23.1739 32.9466 23.1314 32.9801 23.1272C33.0249 23.1349 33.0561 23.1033 33.0922 23.0902C33.0948 23.0852 33.099 23.0813 33.1041 23.079C33.1092 23.0767 33.1148 23.0762 33.1202 23.0776C33.1595 23.0768 33.1846 23.0469 33.2192 23.0408C33.283 23.0515 33.3095 22.9832 33.3653 22.9763C33.3683 22.9709 33.3727 22.9665 33.378 22.9636C33.3834 22.9607 33.3895 22.9594 33.3956 22.9598C33.408 22.96 33.4202 22.9569 33.4311 22.9508C33.4419 22.9446 33.4509 22.9357 33.4572 22.9249C33.4727 22.9247 33.4882 22.9222 33.503 22.9174C33.5053 22.9119 33.5095 22.9074 33.5149 22.9047C33.5202 22.9021 33.5264 22.9014 33.5321 22.9029C33.5826 22.9007 33.6083 22.8608 33.6442 22.8345C33.6464 22.8383 33.6495 22.8414 33.6532 22.8435C33.657 22.8457 33.6613 22.8468 33.6656 22.8468C33.7278 22.8514 33.7581 22.7854 33.8131 22.7754C33.8149 22.7702 33.8184 22.7657 33.8229 22.7627C33.8275 22.7597 33.8329 22.7582 33.8384 22.7586C33.9159 22.759 33.9467 22.6697 34.0199 22.6598C34.042 22.6438 34.0622 22.6268 34.0855 22.6089L34.329 22.3892C34.5512 22.2127 34.7638 22.0243 34.9659 21.8249C35.0262 21.7788 35.0857 21.7296 35.1461 21.6835C35.1572 21.6924 35.1697 21.6995 35.183 21.7048C35.1865 21.6991 35.1912 21.6943 35.1969 21.6908C35.2025 21.6872 35.2089 21.685 35.2155 21.6844L35.3549 21.5508L35.4252 21.5052L35.4583 21.5243C35.5071 21.4846 35.5559 21.445 35.6056 21.4083C35.743 21.3545 35.8099 21.2026 35.9509 21.156C36.0188 21.1013 36.0875 21.0496 36.1496 20.9914C36.3092 20.8407 36.3085 20.8195 36.17 20.6508ZM29.8254 22.8802L29.7962 22.8633C29.8069 22.867 29.8168 22.8727 29.8254 22.8802ZM32.2809 19.3635L32.2741 19.3753L32.2809 19.3635ZM30.9654 23.2538C30.9685 23.2504 30.9708 23.2464 30.9722 23.242L30.9819 23.2476L30.9654 23.2538ZM32.1589 22.0083L32.1764 22.0184C32.1743 22.0161 32.1721 22.0139 32.1698 22.0119L32.1589 22.0083ZM33.5106 20.5382L33.4969 20.5303L33.5203 20.5438C33.5203 20.5438 33.5128 20.5343 33.5106 20.5382ZM33.2944 22.4706C33.3269 22.4816 33.3072 22.4754 33.3028 22.465L33.2944 22.4706ZM34.5231 22.107C34.5375 22.0996 34.5512 22.0909 34.564 22.081C34.5606 22.0868 34.5559 22.0917 34.5502 22.0953C34.5446 22.0989 34.5381 22.101 34.5315 22.1014L34.5231 22.107ZM21.7177 15.7712C21.7381 15.7359 21.7468 15.694 21.7621 15.6584C21.7624 15.6248 21.7714 15.5918 21.7883 15.5626C21.8051 15.5334 21.8292 15.5091 21.8582 15.492L21.8393 15.4393L21.851 15.4461C21.8635 15.4423 21.8746 15.4351 21.8831 15.4251C21.8916 15.4152 21.897 15.4031 21.8988 15.3902C21.9244 15.2874 22.0028 15.21 22.0207 15.1028C22.041 15.0676 22.0408 15.0231 22.0534 14.9833C22.0608 14.9432 22.0707 14.9036 22.083 14.8647C22.1105 14.7631 22.1784 14.677 22.2059 14.5754C22.2258 14.533 22.2418 14.4889 22.2535 14.4436C22.2727 14.4103 22.2756 14.365 22.287 14.3272C22.2915 14.2566 22.3748 14.229 22.3831 14.1607C22.3983 14.1217 22.408 14.0807 22.4119 14.039C22.4266 14.0001 22.4369 13.9596 22.4427 13.9184C22.4633 13.8154 22.6005 13.8111 22.6231 13.7092C22.642 13.6908 22.6633 13.675 22.6864 13.6623C22.7068 13.5957 22.7843 13.5647 22.7871 13.488C22.8063 13.4547 22.8072 13.4083 22.8206 13.3716C22.8281 13.3002 22.9095 13.2715 22.9178 13.2032C22.9332 13.1652 22.9431 13.1253 22.9474 13.0846C22.96 13.045 22.9703 13.0047 22.9782 12.9639C23.0146 12.8649 23.0844 12.7799 23.1061 12.6749C23.1198 12.6357 23.1301 12.5953 23.1369 12.5543C23.1733 12.4553 23.242 12.3722 23.2668 12.2664C23.3188 12.1764 23.372 12.0843 23.4006 11.9808C23.4049 11.9662 23.405 11.9507 23.4012 11.9361C23.3973 11.9214 23.3895 11.9081 23.3787 11.8976L23.4314 11.8602C23.422 11.8058 23.4285 11.7497 23.4501 11.6987C23.4717 11.6477 23.5075 11.604 23.5532 11.5728L23.5898 11.4556C23.5808 11.4017 23.5865 11.3463 23.6064 11.2953C23.6263 11.2442 23.6596 11.1994 23.7027 11.1657C23.7231 11.1305 23.7267 11.0882 23.7373 11.0474L23.7549 10.9452C23.7741 10.9119 23.7738 10.8674 23.7814 10.8274L23.7496 10.7568L23.8241 10.7085L23.7868 10.6295C23.8104 10.6152 23.8333 10.5996 23.8552 10.5828C23.8744 10.5495 23.8723 10.5039 23.8829 10.463C23.8935 10.4222 23.8999 10.3841 23.9106 10.3433C23.9212 10.3024 23.9276 10.2643 23.9382 10.2235C23.9489 10.1826 23.9553 10.1446 23.964 10.1026C23.9727 10.0606 23.981 10.0237 23.9886 9.98364C23.9961 9.94361 24.0068 9.90276 24.0163 9.86386L24.0409 9.74491C24.0189 9.70496 24.0131 9.65796 24.0247 9.61363C24.0363 9.5693 24.0644 9.53104 24.1032 9.50677C24.1224 9.47348 24.1253 9.42813 24.1347 9.38923C24.1442 9.35033 24.1549 9.30947 24.1674 9.26974C24.1682 9.23659 24.1773 9.20413 24.1939 9.17537C24.2105 9.14661 24.2341 9.12249 24.2624 9.10526C24.2499 9.07956 24.2356 9.05475 24.2197 9.03102C24.2447 9.01908 24.2685 9.00487 24.2909 8.98856C24.2789 8.96446 24.2656 8.94108 24.251 8.91852C24.2743 8.90064 24.2945 8.88359 24.3166 8.86766C24.3388 8.85174 24.3406 8.79015 24.3513 8.74929L24.3804 8.62252C24.388 8.58249 24.3955 8.54247 24.4011 8.50133C24.3768 8.45266 24.3658 8.39836 24.369 8.34388C24.3723 8.2894 24.3897 8.23665 24.4196 8.19089L24.4423 8.07083L24.3977 7.99546C24.409 7.97588 24.435 7.9622 24.4533 7.94403L24.4363 7.68617C24.4476 7.66659 24.4705 7.65375 24.4896 7.63866C24.5087 7.62356 24.4977 7.5572 24.5034 7.51606C24.4835 7.46603 24.4745 7.41226 24.477 7.35834C24.4796 7.30442 24.4935 7.25159 24.518 7.20338C24.5043 7.17949 24.4889 7.15664 24.4719 7.13501L24.4776 7.12522C24.4977 7.11281 24.5165 7.09829 24.5337 7.0819C24.5083 7.02169 24.5075 6.95375 24.5315 6.89266C24.5178 6.86945 24.5016 6.84784 24.4831 6.8282C24.493 6.78426 24.4997 6.74116 24.5084 6.69918C24.4777 6.63971 24.4712 6.57046 24.4903 6.50599L24.4432 6.39003C24.4666 6.36971 24.4825 6.34212 24.4884 6.31171C24.5129 6.24231 24.4623 6.18178 24.4676 6.11432C24.4935 6.03793 24.4452 5.97347 24.4365 5.90319C24.4283 5.89639 24.4221 5.88734 24.4189 5.87711C24.4156 5.86689 24.4153 5.85592 24.418 5.8455C24.4241 5.81628 24.4194 5.78589 24.4047 5.76008C24.39 5.73426 24.3663 5.71481 24.3382 5.70542C24.3382 5.70542 24.3382 5.70542 24.3438 5.69563C24.3579 5.68232 24.3712 5.66822 24.3837 5.65341L24.3537 5.60214L24.3405 5.50834C24.3265 5.44281 24.2786 5.38647 24.2912 5.31539C24.3143 5.20344 24.208 5.13163 24.2007 5.023C24.1913 5.01732 24.1841 5.00865 24.1802 4.99835C24.1763 4.98805 24.1759 4.97672 24.1791 4.96614C24.2017 4.86427 24.0908 4.80029 24.1092 4.70121C24.144 4.596 24.0243 4.52949 24.0426 4.43041C24.0802 4.3294 23.9604 4.26289 23.9857 4.16522C24.0183 4.06393 23.9016 3.99658 23.9219 3.89862C23.943 3.80375 23.8812 3.7446 23.832 3.67706C23.8204 3.67033 23.8024 3.68346 23.7882 3.68568L23.807 3.56337C23.7346 3.43282 23.6311 3.31565 23.6578 3.14828L23.5015 2.8936C23.5099 2.89229 23.5178 2.88912 23.5248 2.88433C23.5317 2.87954 23.5375 2.87324 23.5418 2.86591C23.546 2.85859 23.5485 2.85041 23.5492 2.84198C23.5499 2.83355 23.5486 2.8251 23.5456 2.81723C23.5359 2.81071 23.5284 2.8014 23.5241 2.79052C23.5197 2.77963 23.5187 2.76766 23.5212 2.75617C23.5339 2.66688 23.4691 2.60857 23.4322 2.53769C23.4401 2.52398 23.4492 2.50832 23.4407 2.48255C23.432 2.47476 23.4254 2.46495 23.4213 2.45397C23.4173 2.44299 23.416 2.43117 23.4175 2.41953L23.3612 2.33743L23.3382 2.23802C23.3278 2.21052 23.3078 2.18781 23.2818 2.17411L23.3229 2.12993L23.188 1.85624C23.2004 1.8347 23.214 1.8112 23.2275 1.78771L23.1692 1.72268L23.1461 1.67282C23.1573 1.62264 23.1626 1.57134 23.1618 1.51999C23.1904 1.41645 23.0727 1.35106 23.0941 1.25115C23.123 1.14257 23.0125 1.07355 23.02 0.970818C23.0115 0.963632 23.0046 0.954746 22.9996 0.944718C22.9947 0.934691 22.9919 0.923738 22.9914 0.912549C23.0005 0.866062 22.9915 0.817972 22.9662 0.77816C22.941 0.738347 22.9015 0.709835 22.8558 0.698483C22.8174 0.68233 22.7772 0.670538 22.7361 0.663324C22.6933 0.648979 22.6477 0.644985 22.6029 0.651662L22.407 0.770929C22.3859 0.834447 22.3165 0.864866 22.2915 0.926139C22.2813 0.949366 22.2638 0.968627 22.2417 0.98094C22.2066 1.04164 22.135 1.07597 22.1221 1.1521C22.1188 1.16526 22.1184 1.17899 22.121 1.19227C22.1237 1.20556 22.1293 1.21805 22.1374 1.22883C22.1012 1.26013 22.0631 1.29031 22.0249 1.3205C22.0218 1.3548 22.0101 1.38782 21.9909 1.41644C21.9716 1.44506 21.9455 1.46835 21.9149 1.48411C21.9196 1.49771 21.9227 1.5118 21.9243 1.52612C21.8724 1.55107 21.831 1.59396 21.8079 1.64689C21.8013 1.7527 21.6462 1.75193 21.6462 1.86419C21.6134 1.92097 21.551 1.9528 21.5326 2.02052C21.5308 2.03092 21.5258 2.0405 21.5183 2.04789C21.5108 2.05527 21.5011 2.06008 21.4907 2.06162C21.4579 2.08705 21.4602 2.11448 21.4746 2.12542C21.4209 2.14504 21.3723 2.17689 21.3328 2.21845C21.3206 2.22646 21.3092 2.23563 21.2988 2.24584C21.2018 2.26788 21.1165 2.32586 21.0599 2.40815L20.9401 2.50345C20.9107 2.55436 20.8564 2.58564 20.8289 2.63767C20.8105 2.64629 20.7912 2.65265 20.7713 2.65663C20.7021 2.7002 20.618 2.72472 20.5922 2.81427C20.5901 2.82502 20.5845 2.83476 20.5761 2.84184C20.5678 2.84892 20.5573 2.8529 20.5464 2.85312C20.4786 2.9706 20.3225 2.98494 20.2653 3.11112C20.2628 3.12318 20.2566 3.13417 20.2476 3.14255C20.2385 3.15092 20.2271 3.15626 20.215 3.1578C20.1627 3.28427 19.9853 3.28626 19.9474 3.42366C19.9214 3.4687 19.8943 3.51569 19.8799 3.56746L19.7181 3.6907C19.7128 3.72444 19.7 3.75659 19.6806 3.78473C19.6612 3.81288 19.6357 3.83628 19.6061 3.85319C19.5816 4.03484 19.4303 4.11722 19.3118 4.22371C19.3107 4.25756 19.3012 4.29065 19.2842 4.32003C19.2673 4.34941 19.2433 4.37417 19.2146 4.3921C19.2136 4.426 19.2042 4.45916 19.1873 4.48858C19.1703 4.51799 19.1463 4.54272 19.1174 4.5605C19.1186 4.59363 19.1117 4.62661 19.0971 4.65648C19.0826 4.68636 19.0609 4.7122 19.0341 4.73171C19.0229 4.83963 18.9717 4.93962 18.8906 5.01174L18.9115 5.07868L18.7984 5.18042C18.7943 5.23465 18.7794 5.28758 18.7546 5.33604C18.7297 5.38449 18.6954 5.42747 18.6537 5.46241C18.6523 5.49582 18.6429 5.52844 18.6261 5.55745C18.6094 5.58645 18.5859 5.61096 18.5576 5.62884C18.5559 5.66177 18.5464 5.69387 18.5299 5.72247C18.5133 5.75107 18.4903 5.77536 18.4626 5.79332C18.4423 5.82856 18.4208 5.86577 18.4005 5.90101C18.4017 5.93415 18.3947 5.96712 18.3802 5.997C18.3657 6.02687 18.344 6.05272 18.3172 6.07222C18.3202 6.09371 18.3169 6.11564 18.3078 6.13539C18.2987 6.15514 18.2841 6.17187 18.2658 6.18357C18.266 6.21647 18.2589 6.24904 18.2452 6.279C18.2315 6.30896 18.2114 6.33559 18.1864 6.35703C18.1896 6.37847 18.1866 6.40041 18.1779 6.42031C18.1691 6.44021 18.155 6.45726 18.1371 6.4695C18.1351 6.50279 18.1255 6.5352 18.1088 6.56412C18.0921 6.59303 18.0688 6.61764 18.041 6.63593C18.045 6.65735 18.0428 6.6795 18.0348 6.69981C18.0267 6.72012 18.0131 6.73775 17.9955 6.75065C17.9974 6.78336 17.9914 6.8161 17.9781 6.84613C17.9649 6.87616 17.9446 6.90261 17.9191 6.92327C17.9227 6.9447 17.9201 6.96675 17.9117 6.98685C17.9034 7.00695 17.8895 7.0243 17.8717 7.03686C17.8836 7.14379 17.8579 7.25177 17.7991 7.34219C17.7885 7.38304 17.777 7.42082 17.7645 7.46055C17.7693 7.48153 17.7682 7.50346 17.7614 7.52394C17.7546 7.54443 17.7424 7.56267 17.7259 7.57668C17.7309 7.59766 17.7303 7.61962 17.7243 7.64038C17.7182 7.66114 17.7068 7.67999 17.6913 7.69505C17.6961 7.71602 17.695 7.73795 17.6882 7.75844C17.6815 7.77892 17.6692 7.79717 17.6528 7.81117C17.6378 8.01718 17.59 8.21965 17.5113 8.4109C17.5199 8.43088 17.5225 8.45296 17.5188 8.47446C17.5151 8.49597 17.5053 8.51599 17.4906 8.53209L17.4718 8.6544L17.4561 8.77588C17.4769 8.87949 17.4637 8.98727 17.4187 9.08321C17.4561 9.22729 17.4462 9.37995 17.3903 9.51848C17.4149 9.56808 17.428 9.62267 17.4287 9.67821C17.4294 9.73375 17.4177 9.78881 17.3943 9.83931L17.4336 9.91943C17.4234 9.93705 17.3985 9.94877 17.3814 9.96499C17.3932 9.99504 17.3985 10.0273 17.3968 10.0597C17.3951 10.0921 17.3865 10.1237 17.3716 10.1525C17.381 10.172 17.3843 10.1939 17.3811 10.2153C17.378 10.2368 17.3685 10.2568 17.3539 10.2729C17.3592 10.2943 17.3584 10.3167 17.3518 10.3377C17.3451 10.3588 17.3328 10.3776 17.3162 10.3921L17.3472 10.4596C17.2497 10.6436 17.2013 10.8496 17.2069 11.0574C17.1829 11.0719 17.1603 11.0885 17.1393 11.1071L17.1356 11.2303C17.1541 11.2808 17.1621 11.3348 17.1591 11.3887C17.1561 11.4426 17.142 11.4954 17.1179 11.5438C17.1324 11.5732 17.1402 11.6055 17.141 11.6384C17.1417 11.6713 17.1352 11.704 17.122 11.7342C17.1417 11.7617 17.1532 11.7944 17.1551 11.8283C17.1571 11.8622 17.1495 11.8961 17.1331 11.9259C17.152 11.9544 17.1634 11.9871 17.1663 12.0212C17.1693 12.0553 17.1637 12.0896 17.1501 12.1211C17.1699 12.1485 17.1819 12.1809 17.1847 12.2147C17.1875 12.2486 17.1812 12.2826 17.1662 12.3132C17.1868 12.3406 17.2003 12.3727 17.2055 12.4067C17.2108 12.4407 17.2076 12.4755 17.1963 12.508L17.2669 12.6506C17.2545 12.6722 17.2432 12.6918 17.2182 12.7035C17.2553 12.7875 17.3065 12.8693 17.2631 12.967C17.2838 12.9943 17.2969 13.0267 17.3013 13.0608C17.3057 13.0949 17.3012 13.1296 17.2882 13.1616L17.4045 13.3776C17.3824 13.3926 17.3615 13.4093 17.342 13.4276L17.3932 13.5094L17.4022 13.5746C17.4103 13.607 17.4229 13.6381 17.4397 13.6668C17.4317 13.6787 17.4245 13.6911 17.4183 13.704C17.4335 13.7257 17.444 13.7504 17.449 13.7766L17.4799 13.8127L17.4779 13.8611C17.4942 13.9227 17.535 13.9777 17.5248 14.0448L17.5421 14.0731L17.5569 14.1104C17.5356 14.2417 17.6971 14.3166 17.6696 14.4496C17.6437 14.5573 17.7572 14.6255 17.7436 14.7299L17.7641 14.7574L17.773 14.7912C17.7494 14.9264 17.9109 15.0014 17.8853 15.1355C17.8637 15.3031 18.0566 15.391 18.0431 15.5581L18.0674 15.5878L18.0803 15.624C18.0732 15.6498 18.0755 15.6772 18.0867 15.7013C18.0979 15.7255 18.1173 15.7448 18.1415 15.7559C18.1518 15.8637 18.2551 15.9363 18.2353 16.0424L18.2565 16.073L18.2674 16.108C18.2663 16.3031 18.4752 16.4081 18.4752 16.6012L18.4995 16.6309L18.5112 16.669C18.5238 16.8538 18.6696 16.9694 18.7424 17.1262L18.8376 17.1812L18.8303 17.2971L18.9231 17.5047C18.9201 17.5071 18.918 17.5106 18.9174 17.5145C18.8967 17.5234 18.8854 17.543 18.8835 17.5732L18.9047 17.6038L18.9126 17.6396C18.8931 17.7406 19.0039 17.8046 18.9856 17.9037C18.9677 17.9422 18.9586 17.9842 18.9588 18.0265C18.9539 18.0337 18.9506 18.0417 18.9491 18.0502C18.9475 18.0586 18.9478 18.0673 18.9499 18.0756C18.9519 18.084 18.9557 18.0918 18.9609 18.0985C18.9662 18.1052 18.9728 18.1108 18.9804 18.1148C18.9676 18.1286 18.954 18.1416 18.9397 18.1539C18.9443 18.1749 18.9429 18.1968 18.9358 18.2171C18.9286 18.2374 18.916 18.2554 18.8992 18.2689C18.9062 18.2893 18.907 18.3115 18.9014 18.3324C18.8957 18.3534 18.884 18.3722 18.8676 18.3864C18.8739 18.4077 18.8734 18.4305 18.8663 18.4516C18.8592 18.4728 18.8458 18.4912 18.828 18.5045C18.8323 18.5389 18.8287 18.5739 18.8173 18.6068C18.806 18.6396 18.7873 18.6694 18.7627 18.694C18.7696 18.7157 18.7795 18.7363 18.7921 18.7553C18.7792 18.8001 18.7643 18.8437 18.7506 18.8854C18.7256 18.898 18.702 18.9133 18.6803 18.9309C18.6862 18.9519 18.6857 18.9742 18.6788 18.9949C18.672 19.0156 18.659 19.0338 18.6417 19.0471C18.6525 19.0722 18.6654 19.0963 18.6805 19.1191L18.9577 19.2452L19.0311 19.1988C18.9921 18.9387 19.2577 19.0085 19.3564 18.8958C19.3889 18.7631 19.5045 18.7202 19.5982 18.6386C19.5936 18.6149 19.5859 18.5921 19.5753 18.5705C19.6157 18.5364 19.655 18.5043 19.6924 18.471C19.6858 18.448 19.6756 18.4263 19.6622 18.4066L19.6746 18.385C19.6985 18.3739 19.7215 18.361 19.7435 18.3465C19.7344 18.3232 19.723 18.3008 19.7094 18.2798C19.7234 18.2699 19.7341 18.2559 19.7401 18.2399C19.7461 18.2238 19.7473 18.2064 19.7433 18.1897C19.7583 18.1888 19.7732 18.1869 19.788 18.1842C19.8677 18.1179 19.9776 18.0848 20.0302 17.9846C20.0413 17.9617 20.0608 17.9439 20.0847 17.9352C20.11 17.8688 20.1845 17.8387 20.2039 17.769C20.2081 17.7589 20.2143 17.7497 20.2223 17.7421C20.2302 17.7345 20.2397 17.7288 20.25 17.7251C20.2862 17.6625 20.3548 17.629 20.3812 17.5607C20.3938 17.538 20.4133 17.52 20.4369 17.5093C20.4674 17.4564 20.4968 17.4055 20.5273 17.3526C20.5273 17.3526 20.5273 17.3526 20.533 17.3429L20.6143 17.2828C20.6283 17.0924 20.8406 17.0166 20.8721 16.8363C20.9464 16.6626 21.1437 16.5859 21.2103 16.4076C21.3612 16.2626 21.5025 16.1079 21.6333 15.9444C21.6323 15.9109 21.6394 15.8776 21.6541 15.8474C21.6688 15.8172 21.6907 15.791 21.7177 15.7712ZM19.988 4.66892C19.9936 4.65913 19.9873 4.64764 19.9891 4.63561L20.0167 4.67764L19.988 4.66892ZM18.4167 7.5656C18.4167 7.5656 18.4257 7.54993 18.4303 7.5421L18.4535 7.57376L18.4167 7.5656ZM22.1438 1.49619L22.1282 1.48721L22.1438 1.49619ZM19.5934 6.81165C19.5934 6.81165 19.5934 6.81165 19.5994 6.82817L19.5934 6.81165ZM20.253 12.8395L20.2695 12.8647C20.2622 12.8642 20.2553 12.8614 20.2496 12.8567C20.244 12.852 20.2399 12.8457 20.2379 12.8387L20.253 12.8395ZM20.6538 13.6897C20.6537 13.6941 20.6549 13.6983 20.6571 13.702L20.6538 13.6897ZM15.4696 21.9463L15.3347 21.8162L15.2626 21.7615L15.1822 21.6133C15.1344 21.6013 15.0899 21.5785 15.0521 21.5468C15.0143 21.515 14.9843 21.4751 14.9641 21.4299C14.8321 21.3824 14.7096 21.3117 14.6025 21.2212L14.5236 21.066C14.4898 21.065 14.4566 21.0569 14.4263 21.0421C14.396 21.0272 14.3692 21.0061 14.3477 20.98C14.3269 20.9882 14.3042 20.9898 14.2826 20.9848C14.261 20.9798 14.2415 20.9683 14.2265 20.9519L13.9552 20.9728C13.8425 20.9077 13.7016 20.9047 13.6095 20.7993C13.5883 20.8071 13.5654 20.8085 13.5435 20.8033C13.5216 20.7981 13.5018 20.7865 13.4865 20.77C13.465 20.7786 13.4414 20.7802 13.4191 20.7743C13.3968 20.7685 13.377 20.7556 13.3626 20.7377C13.0879 20.6835 12.8043 20.6764 12.5677 20.498L12.5014 20.5276L12.274 20.3467C12.1646 20.3408 12.0598 20.3013 11.9739 20.2335C11.9317 20.2276 11.8907 20.2154 11.8522 20.1972L11.8328 20.186C11.7798 20.1598 11.7233 20.1412 11.665 20.1309L11.6844 20.1421C11.3832 20.0998 11.0902 20.0125 10.8152 19.8831C10.7946 19.8914 10.7718 19.893 10.7503 19.8876C10.7287 19.8822 10.7095 19.87 10.6952 19.853C10.6519 19.8681 10.6053 19.8709 10.5606 19.8612C10.5159 19.8515 10.4748 19.8297 10.4418 19.798C10.4207 19.8058 10.3977 19.8068 10.376 19.8009C10.3543 19.7949 10.3351 19.7823 10.321 19.7648C10.299 19.7718 10.2754 19.772 10.2534 19.7653C10.2313 19.7586 10.2118 19.7454 10.1974 19.7274L9.62751 19.6595C9.51045 19.5344 9.34148 19.5622 9.19345 19.5133C9.16418 19.5341 9.12976 19.5464 9.09404 19.5489C9.05832 19.5513 9.02269 19.5437 8.99111 19.527C8.94798 19.5404 8.9022 19.5425 8.85816 19.5331C8.81413 19.5237 8.77331 19.5031 8.73963 19.4732L8.65291 19.5067L8.6143 19.4478C8.57114 19.4594 8.52583 19.4601 8.4825 19.4496C8.43917 19.4392 8.39919 19.4181 8.36621 19.3881C8.21547 19.4024 8.06364 19.3834 7.92143 19.3324C7.87038 19.3575 7.8142 19.3701 7.75751 19.3691C7.70081 19.3681 7.64524 19.3537 7.59539 19.3269C7.31043 19.3772 7.01907 19.3753 6.73544 19.3212L6.59161 19.3818C6.57108 19.3672 6.55189 19.3509 6.53423 19.333C6.50501 19.3533 6.47121 19.3659 6.43594 19.3698C6.40066 19.3736 6.36506 19.3684 6.33239 19.3548C6.30306 19.3746 6.26914 19.3863 6.234 19.3889C6.19885 19.3915 6.16369 19.3849 6.132 19.3696C6.10299 19.39 6.06926 19.4026 6.03409 19.4061C5.99892 19.4096 5.9635 19.4039 5.93129 19.3895L5.79247 19.4504C5.76841 19.4415 5.74605 19.4286 5.72637 19.4122L5.57431 19.4915C5.57038 19.4885 5.56588 19.4864 5.56108 19.4852C5.55628 19.484 5.55129 19.4839 5.54641 19.4847C5.54154 19.4856 5.53689 19.4874 5.53275 19.4902C5.52861 19.4929 5.52507 19.4965 5.52236 19.5007L5.51218 19.5183C5.50754 19.505 5.49991 19.4929 5.48987 19.483C5.47984 19.4732 5.46768 19.4658 5.45431 19.4614C5.34905 19.4371 5.28009 19.5566 5.1737 19.5343C5.02327 19.5075 4.94206 19.6617 4.79669 19.6665C4.79461 19.672 4.79141 19.677 4.78731 19.6813C4.78321 19.6855 4.77829 19.6889 4.77286 19.6911C4.76742 19.6934 4.76159 19.6945 4.75573 19.6944C4.74986 19.6943 4.74409 19.6929 4.73877 19.6905C4.59241 19.6791 4.51102 19.8201 4.36339 19.8288L4.22539 19.8927C4.05133 20.0261 3.85405 20.1257 3.64382 20.1862C3.6422 20.1923 3.63933 20.198 3.63538 20.2029C3.63143 20.2079 3.6265 20.2119 3.62091 20.2149C3.61532 20.2178 3.60918 20.2195 3.6029 20.2199C3.59662 20.2203 3.59033 20.2194 3.58445 20.2172C2.85235 20.6456 2.12025 21.074 1.42562 21.5632C1.24245 21.6246 1.12506 21.8414 0.900122 21.782C0.891502 21.7908 0.880463 21.7967 0.86845 21.7991C0.856437 21.8015 0.84401 21.8002 0.832796 21.7953C0.767868 21.7866 0.708857 21.8439 0.639544 21.8247C0.520669 21.9049 0.398722 21.9859 0.277903 22.065C0.234944 22.1394 0.301089 22.2089 0.292449 22.2823L0.315779 22.2957L0.321159 22.3223C0.385316 22.3594 0.421844 22.4353 0.507662 22.4483C0.546447 22.4663 0.587893 22.4778 0.630419 22.4826C0.799563 22.5803 0.999185 22.5937 1.17656 22.6726C1.26999 22.7317 1.37361 22.773 1.48221 22.7942L1.60026 22.8232L1.72478 22.8455C1.76896 22.8333 1.81559 22.8339 1.85931 22.8471C1.90304 22.8604 1.94207 22.8857 1.97192 22.9203L2.08952 22.9726C2.11474 22.972 2.13956 22.9658 2.16219 22.9545C2.25885 23.0095 2.36758 23.0401 2.47896 23.0434C2.49095 23.0625 2.50504 23.0803 2.52096 23.0963L2.66045 23.0568C2.67616 23.0752 2.69655 23.0889 2.71946 23.0967C2.74237 23.1044 2.76696 23.1057 2.79067 23.1006L3.01425 23.2297C3.03639 23.2239 3.05974 23.2251 3.08107 23.2332C3.1024 23.2414 3.12065 23.2559 3.13329 23.275C3.16736 23.2738 3.2012 23.2803 3.23226 23.2942C3.26333 23.3081 3.2908 23.3288 3.31261 23.355C3.33471 23.3491 3.35799 23.3496 3.3797 23.3566C3.4014 23.3636 3.42062 23.3767 3.43505 23.3943C3.45674 23.3882 3.47967 23.3884 3.50119 23.3948C3.52272 23.4012 3.54195 23.4137 3.55668 23.4306C3.57831 23.4236 3.6015 23.4234 3.6232 23.4298C3.64491 23.4363 3.66412 23.4492 3.6783 23.4669C3.6999 23.4594 3.7232 23.4587 3.74512 23.4649C3.76705 23.471 3.78655 23.4837 3.80106 23.5012C3.85691 23.496 3.91316 23.5028 3.96603 23.5212C4.01891 23.5395 4.0672 23.5691 4.10766 23.6078C4.12893 23.6012 4.15159 23.6008 4.17298 23.6067C4.19438 23.6126 4.21363 23.6245 4.22847 23.641C4.25056 23.635 4.27385 23.6356 4.29556 23.6426C4.31726 23.6496 4.33647 23.6627 4.35091 23.6803C4.37306 23.6752 4.3962 23.6767 4.41739 23.6848C4.43858 23.6928 4.45688 23.707 4.46996 23.7256C4.50414 23.7227 4.53848 23.7277 4.57035 23.7402C4.60221 23.7527 4.63075 23.7724 4.6538 23.7978C4.6755 23.792 4.69838 23.7927 4.71959 23.7999C4.74081 23.807 4.75943 23.8203 4.77316 23.838C4.79526 23.832 4.81854 23.8326 4.84025 23.8396C4.86195 23.8466 4.88117 23.8597 4.8956 23.8773C4.91732 23.8721 4.94002 23.8731 4.96113 23.8802C4.98223 23.8873 5.00088 23.9003 5.01497 23.9175L5.09554 23.8857L5.14143 23.9409C5.16098 23.9287 5.18349 23.9222 5.20645 23.9221C5.22941 23.922 5.25191 23.9283 5.27143 23.9403C5.3871 23.8852 5.51865 23.8747 5.64097 23.9108C5.67063 23.8919 5.70448 23.8806 5.73946 23.878C5.77444 23.8754 5.80946 23.8816 5.84137 23.896C5.87059 23.8755 5.90516 23.8641 5.94071 23.8632C5.97627 23.8624 6.01121 23.8721 6.04113 23.8912C6.07119 23.8733 6.10495 23.8627 6.13972 23.8601C6.1745 23.8575 6.20935 23.8631 6.24152 23.8764C6.26057 23.8625 6.28335 23.8549 6.3068 23.8544C6.33024 23.8539 6.35322 23.8607 6.37264 23.8738C6.5474 23.818 6.71184 23.9103 6.87453 23.9024C6.89111 23.9199 6.91236 23.9321 6.93575 23.9378C6.95915 23.9434 6.9837 23.9422 7.00651 23.9343C7.10765 24.024 7.27368 23.9789 7.35868 24.101C7.38125 24.0973 7.40436 24.1001 7.42536 24.109C7.44636 24.1179 7.4644 24.1325 7.47741 24.1513C7.4986 24.1435 7.52157 24.1421 7.54345 24.1473C7.56534 24.1525 7.58518 24.1641 7.60048 24.1806C7.62059 24.1696 7.64352 24.165 7.66623 24.1674C7.68893 24.1697 7.71033 24.179 7.72758 24.1939C7.75729 24.1753 7.79128 24.1648 7.82618 24.1634C7.86108 24.1621 7.89567 24.1699 7.92653 24.1861C7.95665 24.1679 7.99032 24.1566 8.02518 24.1528C8.06005 24.149 8.09526 24.1529 8.12837 24.1642L8.28839 24.1026C8.30427 24.1263 8.32324 24.1478 8.34481 24.1665C8.37364 24.1457 8.4074 24.1329 8.44266 24.1294C8.47792 24.1259 8.51342 24.1318 8.54552 24.1466C8.59309 24.1271 8.64066 24.1076 8.68741 24.085C8.70292 24.1062 8.72275 24.1239 8.7456 24.1368L8.81917 24.0723L8.90201 24.0365C8.91555 24.0408 8.93016 24.0404 8.94347 24.0353C8.95678 24.0301 8.968 24.0207 8.9753 24.0084L9.15218 24.0792L9.29619 24.0318C9.31789 24.0403 9.3382 24.0521 9.35646 24.0666L9.50513 23.9931C9.51676 23.994 9.52802 23.9975 9.53811 24.0034C9.5482 24.0092 9.55686 24.0172 9.56346 24.0268L9.72266 23.9621C9.73394 23.9812 9.74697 23.9992 9.76159 24.0159C9.84895 23.9723 9.93468 23.9226 10.0382 23.9589C10.0679 23.9396 10.1016 23.9276 10.1366 23.9238C10.1717 23.9201 10.2071 23.9246 10.24 23.937C10.2792 23.907 10.3243 23.8857 10.3723 23.8746C10.4202 23.8636 10.47 23.863 10.518 23.873C10.556 23.8406 10.601 23.8175 10.6493 23.8055C10.6976 23.7935 10.748 23.793 10.7964 23.804C10.899 23.7246 11.0239 23.6797 11.153 23.6757L11.3749 23.5428C11.3996 23.5417 11.4232 23.5324 11.4421 23.5163C11.4425 23.5257 11.4453 23.5348 11.4502 23.5429C11.455 23.5509 11.4619 23.5575 11.47 23.5622C11.4781 23.5669 11.4873 23.5695 11.4967 23.5697C11.5061 23.5699 11.5154 23.5677 11.5237 23.5634C11.527 23.5536 11.5339 23.5453 11.5431 23.5404C11.5522 23.5355 11.5628 23.5342 11.5727 23.5369C11.8112 23.5414 11.9381 23.2857 12.1675 23.2746C12.3746 23.2975 12.482 23.062 12.6804 23.0642C12.7519 23.0794 12.7956 23.0576 12.8175 22.9972L12.835 23.0073C12.937 22.9878 13.0133 22.8961 13.124 22.8974C13.1285 22.8859 13.1368 22.8763 13.1474 22.8701C13.158 22.8639 13.1705 22.8615 13.1826 22.8633C13.4183 22.8636 13.5468 22.6141 13.7765 22.5979C14.2241 22.4647 14.6642 22.2906 15.1445 22.3252C15.1631 22.3088 15.1758 22.2868 15.1807 22.2625L15.409 22.2847L15.4655 22.1868L15.5198 22.1241L15.5325 22.0348L15.4696 21.9463ZM5.08195 23.6533C5.08487 23.6489 5.08751 23.6444 5.08986 23.6396C5.08956 23.6456 5.09057 23.6515 5.0928 23.657L5.08195 23.6533ZM6.00722 22.2034L5.98 22.1877C5.98968 22.1918 5.99882 22.197 6.00722 22.2034ZM6.92552 22.4986L6.9187 22.479L6.93425 22.488L6.92552 22.4986ZM8.6434 23.6314L8.65506 23.6381L8.6434 23.6314ZM11.0325 22.4835L11.0249 22.4609L11.0337 22.4816C11.0337 22.4816 11.0337 22.4816 11.0325 22.4835ZM16.9446 19.9078L16.9007 19.8042C16.7324 19.2855 16.6002 18.7555 16.5048 18.218C16.4866 18.043 16.3924 17.892 16.3918 17.7089C16.4182 17.6093 16.3116 17.5425 16.3226 17.4471L16.2583 17.316L15.6885 16.4126L15.6241 16.2684C15.5328 15.944 15.3993 15.6333 15.2268 15.3445L15.245 15.2323C15.0713 14.9989 15.037 14.6945 14.9052 14.4513C14.6044 13.8458 14.2177 13.2876 13.7573 12.7939C13.3914 12.4443 13.0945 12.0066 12.563 11.872C12.4383 11.6071 12.2331 11.3889 11.9766 11.2489C11.7848 11.1573 11.6171 11.022 11.4867 10.8538L11.4283 10.8697L11.3358 10.738C11.3036 10.7393 11.2718 10.7315 11.2439 10.7154C11.216 10.6993 11.1933 10.6756 11.1784 10.647C11.1463 10.6471 11.1147 10.6398 11.086 10.6255C11.0574 10.6112 11.0325 10.5904 11.0133 10.5648C10.9823 10.5659 10.9516 10.5597 10.9235 10.5467C10.8955 10.5336 10.8709 10.5142 10.8518 10.4898C10.8311 10.4906 10.8107 10.4856 10.7928 10.4753C10.7749 10.4649 10.7603 10.4498 10.7507 10.4315C10.6484 10.4269 10.5522 10.3826 10.4824 10.3079C10.45 10.3107 10.4175 10.3035 10.3894 10.2873C10.3612 10.271 10.3387 10.2465 10.325 10.217C10.2928 10.2139 10.262 10.2028 10.2354 10.1847C10.2087 10.1665 10.187 10.142 10.1723 10.1132L10.047 10.0878C10.0375 10.0669 10.0267 10.0467 10.0145 10.0273L9.95158 10.051L9.90488 9.99273L9.83854 10.0223C9.81952 10.0059 9.80369 9.98618 9.79184 9.96402C9.76937 9.97396 9.74629 9.98244 9.72275 9.9894C9.71759 9.97751 9.70877 9.96762 9.69758 9.96116C9.68639 9.95469 9.67341 9.952 9.66054 9.95348L9.62921 9.89101C9.60902 9.89473 9.58823 9.89261 9.56927 9.8849C9.55031 9.87719 9.53396 9.8642 9.52214 9.84747L9.34711 9.82735L9.09496 9.64C8.95899 9.61995 8.82889 9.57151 8.71304 9.49782C8.69241 9.50168 8.67114 9.49932 8.65193 9.49102C8.63272 9.48272 8.61644 9.46885 8.60516 9.4512C8.35427 9.42213 8.10997 9.3525 7.88173 9.245L7.8196 9.27178L7.76788 9.2132C7.74871 9.22051 7.72774 9.22139 7.70811 9.21571C7.68849 9.21003 7.67127 9.19809 7.65905 9.1817L7.58933 9.21716C7.48628 9.15767 7.34028 9.17258 7.27826 9.03756C7.25808 9.04231 7.23698 9.04089 7.21769 9.03348C7.19841 9.02607 7.18181 9.013 7.17006 8.99598C7.00321 9.03802 6.93093 8.85791 6.78796 8.84064L6.74917 8.76864C6.72707 8.7719 6.70522 8.77674 6.68378 8.78311L6.55285 8.68662C6.57202 8.68838 6.59117 8.68259 6.60625 8.67046C6.59513 8.66914 6.5844 8.66557 6.57471 8.65998C6.56502 8.65439 6.55657 8.64688 6.54987 8.63791L6.49678 8.64904C6.49492 8.63728 6.49398 8.62539 6.49398 8.61348C6.48599 8.5898 6.4717 8.56881 6.45265 8.55275C6.4336 8.53669 6.41051 8.52618 6.38588 8.52235C6.33339 8.49204 6.29898 8.4304 6.22646 8.4303C6.19081 8.41501 6.15431 8.40178 6.11713 8.39068C6.05075 8.38891 6.02263 8.3074 5.95965 8.29976C5.92429 8.27889 5.88385 8.26818 5.84273 8.2688L5.85439 8.27554C5.81803 8.25966 5.77883 8.25123 5.73909 8.25074C5.67882 8.21595 5.61561 8.27605 5.55407 8.26141C5.48347 8.2659 5.41513 8.28877 5.3558 8.32776C5.29647 8.36675 5.24819 8.42052 5.21572 8.48378C5.19782 8.52034 5.18647 8.55975 5.18221 8.60019C5.16583 8.64264 5.16256 8.68897 5.17284 8.73315L5.19052 8.75641L5.19282 8.78385C5.18196 8.89245 5.26543 8.95891 5.30358 9.04099C5.32111 9.04745 5.33979 9.05024 5.35847 9.04918C5.35847 9.04918 5.35847 9.04919 5.35169 9.06093C5.34491 9.07268 5.34111 9.13315 5.33776 9.17037L5.84367 10.0003L5.98471 10.3846C5.97228 10.4061 5.96097 10.4257 5.94967 10.4453C5.91322 10.5443 6.03019 10.6066 6.00604 10.7023C5.97266 10.8005 6.08963 10.8628 6.06435 10.9605C6.03097 11.0587 6.14794 11.121 6.12185 11.2156C6.09738 11.3164 6.20237 11.377 6.19327 11.4736C6.24324 11.7461 6.31044 12.0151 6.39448 12.279C6.37272 12.4648 6.58346 12.5578 6.57707 12.7394L7.48915 14.3834L7.51442 14.398L7.51948 14.4297C7.71878 14.5604 7.72356 14.8529 7.9484 14.9619C8.08061 15.0382 8.08621 15.2216 8.2336 15.2806L8.25888 15.2952L8.26507 15.3248C8.3017 15.3577 8.34052 15.3879 8.38127 15.4154L8.39099 15.421C8.39458 15.4576 8.40809 15.4924 8.43005 15.5216C8.45201 15.5509 8.48158 15.5735 8.51555 15.5869L8.54276 15.6027L8.55203 15.6315C8.57911 15.6654 8.60453 15.6618 8.62293 15.6254L8.7582 15.8132C8.88137 15.8827 8.98045 15.9882 9.04241 16.1156C9.08614 16.1242 9.12719 16.1429 9.16222 16.1704C9.19726 16.1979 9.22528 16.2333 9.24401 16.2738C9.38314 16.3264 9.50526 16.4158 9.59744 16.5327C9.74491 16.5812 9.87151 16.6782 9.95689 16.8081C10.1012 16.8628 10.2259 16.9593 10.3152 17.0855C10.3582 17.0915 10.3991 17.1075 10.4348 17.1322C10.4705 17.1569 10.4999 17.1896 10.5208 17.2277C10.5523 17.2297 10.5829 17.239 10.6102 17.2547C10.6375 17.2705 10.6608 17.2923 10.6783 17.3186C10.8137 17.3456 10.9429 17.3972 11.0596 17.4709C11.1584 17.488 11.2504 17.5321 11.3256 17.5983C11.426 17.6032 11.521 17.6441 11.5933 17.7137C11.6135 17.7079 11.6349 17.7085 11.6545 17.7157C11.6742 17.7228 11.691 17.736 11.7027 17.7534C11.7541 17.7507 11.8054 17.7605 11.8521 17.782C11.8988 17.8035 11.9396 17.8361 11.9709 17.8769L12.0403 17.8465C12.1638 17.9478 12.303 18.0282 12.4525 18.0845L12.8445 18.3395C12.8806 18.3718 12.9277 18.3892 12.9763 18.3883C13.0249 18.3873 13.0714 18.368 13.1067 18.3342L13.1883 18.3187C13.3943 18.4377 13.5824 18.6193 13.8504 18.4738L14.5467 18.6148C14.6114 18.8035 14.7977 18.885 14.9104 19.031C15.0438 19.0558 15.1758 19.0876 15.3088 19.1043C15.4464 19.109 15.5779 19.161 15.6813 19.2516C15.7848 19.3422 15.8538 19.4659 15.8769 19.602C15.8932 19.7111 15.9407 19.8129 16.0136 19.895L16.1394 20.0094L16.2288 20.0611L16.463 20.1806L16.5604 20.2186L16.6713 20.233L16.7218 20.2622L16.8769 20.2316L16.8816 20.156L16.9872 20.063L16.9446 19.9078ZM9.22592 14.0782L9.23274 14.0978L9.22592 14.0782ZM10.3184 12.5316L10.31 12.5372L10.3184 12.5316ZM10.5309 13.9596C10.5222 13.9569 10.5142 13.9523 10.5075 13.9461C10.5152 13.9523 10.5237 13.9572 10.5328 13.9607L10.5309 13.9596ZM12.074 11.655L12.0565 11.6449C12.0775 11.6399 12.0989 11.6374 12.1205 11.6374L12.074 11.655ZM12.4288 17.6765C12.4288 17.6765 12.4288 17.6765 12.4404 17.6833L12.4288 17.6765ZM13.5151 16.9983C13.5221 16.9942 13.5294 16.9905 13.5369 16.9875C13.5369 16.9875 13.529 17.0012 13.5245 17.009L13.5151 16.9983ZM14.5466 16.7428L14.5582 16.7495L14.5466 16.7428Z" fill="#84BD00"/>
</svg>
