<svg width="127" height="73" viewBox="0 0 127 73" fill="none" xmlns="http://www.w3.org/2000/svg">
<g clip-path="url(#clip0)">
<path d="M33.0101 22.2649C33.0662 22.1951 33.0959 22.1021 33.1718 22.0456C33.171 22.0313 33.174 22.0171 33.1804 22.0043C33.1867 21.9914 33.1963 21.9805 33.208 21.9725C33.3433 21.8961 33.3466 21.7466 33.3994 21.6403C33.3972 21.6186 33.3892 21.5979 33.3763 21.5805C33.513 21.3146 33.685 21.0687 33.8876 20.8496C34.1251 20.4066 34.3637 19.9548 34.6034 19.4941C34.6599 19.3827 34.7532 19.2946 34.8673 19.2449L35.0949 18.7798H35.1774C35.2598 18.5539 35.3324 18.3147 35.6194 18.2649C35.6722 18.1586 35.7184 18.0456 35.8404 18.0024L35.9724 17.7134C36.3814 17.1486 36.576 16.4642 37.0246 15.9127C37.4135 15.354 37.6995 14.7294 37.8691 14.0689C38.0982 13.6456 38.2849 13.2004 38.4266 12.74L38.6344 12.2416C38.6289 12.2282 38.6282 12.2132 38.6324 12.1993C38.6366 12.1853 38.6455 12.1733 38.6575 12.1652C38.6245 12.0556 38.7268 11.9526 38.7037 11.833L38.7433 11.7898C38.7646 11.7619 38.7793 11.7294 38.7862 11.6948C38.7931 11.6602 38.7919 11.6245 38.7829 11.5905C38.7789 11.5753 38.7789 11.5593 38.7829 11.5442C38.787 11.529 38.7949 11.5152 38.8059 11.5041C38.7763 11.2649 38.9907 11.0855 38.9742 10.8396C38.9742 10.7765 39.0072 10.7134 39.027 10.6503C38.9907 10.524 39.1127 10.4144 39.0632 10.2881C39.0039 10.1685 39.1457 10.0589 39.0632 9.9559C39.0632 9.91604 39.0632 9.86953 39.0336 9.8363C39.0461 9.81943 39.0547 9.79989 39.0587 9.77918C39.0627 9.75846 39.062 9.7371 39.0566 9.7167C39.0485 9.69075 39.0485 9.66292 39.0566 9.63697C39.0568 9.61518 39.051 9.59376 39.04 9.57502C39.029 9.55629 39.013 9.54095 38.994 9.53066C38.994 9.51072 38.994 9.48747 39.0204 9.46753C38.9968 9.4329 38.9821 9.39297 38.9775 9.35125C38.9729 9.30954 38.9785 9.26732 38.994 9.22833C38.9706 9.19286 38.9566 9.15203 38.9532 9.10963C38.9497 9.06723 38.9569 9.02464 38.9742 8.98581C38.954 8.94863 38.9434 8.90693 38.9434 8.86454C38.9434 8.82216 38.954 8.78046 38.9742 8.74328L38.9346 8.64694C38.9622 8.6061 38.9728 8.55603 38.9643 8.5074C38.9544 8.4806 38.9544 8.45114 38.9643 8.42434C38.9643 8.33464 38.9973 8.24826 38.9643 8.15856C38.9214 8.08547 38.9643 8.00574 38.9643 7.92933C38.9545 7.89911 38.9545 7.86652 38.9643 7.8363C38.9643 7.75325 38.9907 7.67019 38.9643 7.58381C38.9545 7.55359 38.9545 7.52101 38.9643 7.49079C38.9627 7.47402 38.9578 7.45773 38.9499 7.4429C38.9419 7.42806 38.9311 7.41498 38.9181 7.40441C38.9427 7.38558 38.9606 7.35915 38.9689 7.32917C38.9772 7.29918 38.9756 7.26727 38.9643 7.2383C38.956 7.22731 38.9515 7.21389 38.9515 7.20009C38.9515 7.18629 38.956 7.17287 38.9643 7.16189C38.9643 7.07218 38.9973 6.98248 38.9643 6.89278C38.8983 6.7765 39.05 6.66687 38.9643 6.56056C38.9643 6.48082 38.9907 6.40109 38.9643 6.32468C38.9579 6.31178 38.9546 6.29756 38.9546 6.28315C38.9546 6.26873 38.9579 6.25452 38.9643 6.24162C38.9643 6.15192 39.0039 6.06222 38.9643 5.97584C38.9313 5.8961 38.9643 5.81305 38.9643 5.73331C38.8917 5.62036 39.0434 5.51072 38.9643 5.40109C38.9412 5.32135 38.9907 5.24162 38.9643 5.16189C38.9579 5.14899 38.9546 5.13477 38.9546 5.12036C38.9546 5.10594 38.9579 5.09173 38.9643 5.07883C38.9643 4.99245 39.0039 4.90275 38.9643 4.81305C38.9643 4.76321 38.9313 4.7167 38.9247 4.66687C38.8983 4.62589 38.8783 4.58107 38.8653 4.53398C38.86 4.51872 38.8494 4.50592 38.8355 4.49797C38.8215 4.49002 38.8051 4.48747 38.7894 4.49079C38.7968 4.47361 38.7983 4.45442 38.7935 4.43633C38.7887 4.41824 38.778 4.40231 38.7631 4.39112C38.7504 4.38927 38.7385 4.38438 38.7281 4.37686C38.7178 4.36934 38.7094 4.35942 38.7037 4.34793C38.6548 4.29173 38.5935 4.24776 38.5248 4.21951C38.4561 4.19126 38.3818 4.17949 38.3078 4.18514C38.2968 4.19156 38.2843 4.19493 38.2716 4.19493C38.2588 4.19493 38.2463 4.19156 38.2353 4.18514C38.1747 4.17677 38.1133 4.19224 38.0637 4.22833C38.0131 4.24074 37.9643 4.25972 37.9186 4.28481C37.8679 4.29867 37.8199 4.32114 37.7767 4.35125C37.754 4.35634 37.7329 4.36727 37.7155 4.38299C37.6982 4.39871 37.6852 4.41868 37.6778 4.44096H37.6448C37.5557 4.59046 37.3743 4.5971 37.2523 4.69677C37.2362 4.68932 37.2188 4.68546 37.2011 4.68546C37.1835 4.68546 37.166 4.68932 37.15 4.69677C37.1291 4.68071 37.1057 4.66835 37.0807 4.66022L37.0378 4.72999C37.0113 4.71407 36.9823 4.70284 36.9521 4.69677C36.9348 4.72101 36.9193 4.74656 36.9059 4.77318L36.8168 4.74993C36.8006 4.77656 36.7863 4.80432 36.7739 4.83298L36.6849 4.8064C36.6675 4.83294 36.6521 4.8607 36.6387 4.88946L36.543 4.85624L36.4969 4.94262L36.4045 4.91604L36.355 5.00242C36.3254 5.00563 36.2955 5.00563 36.2659 5.00242C36.252 5.02579 36.2312 5.04416 36.2063 5.05489C36.1814 5.06563 36.1538 5.06819 36.1274 5.06222C36.1134 5.08581 36.0927 5.1047 36.0681 5.11652C36.0434 5.12834 36.0159 5.13257 35.9888 5.12866L35.8569 5.20175C35.7269 5.33203 35.5596 5.41801 35.3786 5.4476C35.3663 5.47158 35.3471 5.49134 35.3237 5.50435C35.3002 5.51736 35.2734 5.52305 35.2466 5.52069C35.2268 5.55691 35.1994 5.58841 35.1664 5.61305C35.1334 5.6377 35.0955 5.65492 35.0553 5.66355L34.93 5.74993C34.9136 5.7884 34.8877 5.82202 34.8548 5.8476C34.8219 5.87318 34.7831 5.88988 34.7419 5.8961C34.7241 5.93358 34.6978 5.96632 34.6652 5.9917C34.6325 6.01709 34.5944 6.03441 34.5539 6.04228L34.4286 6.13199L34.3296 6.27152C34.3151 6.26492 34.2994 6.2615 34.2834 6.2615C34.2675 6.2615 34.2518 6.26492 34.2372 6.27152C34.1515 6.29478 34.1317 6.39777 34.0525 6.42767C34.0011 6.44141 33.9543 6.46897 33.9173 6.5074C33.8282 6.5074 33.8051 6.61704 33.7325 6.65026C33.6501 6.67019 33.6369 6.77983 33.5478 6.78979C33.5082 6.82302 33.4554 6.8363 33.4192 6.87285C33.3367 6.89278 33.3136 6.99245 33.2377 7.02235C33.1182 7.08377 33.0073 7.16085 32.9079 7.25159C32.8155 7.2682 32.7924 7.36454 32.7231 7.41105C32.6341 7.43099 32.6143 7.52733 32.5384 7.56388C32.4493 7.60042 32.4197 7.69677 32.3537 7.75657C32.3527 7.77138 32.347 7.78548 32.3376 7.79683C32.3281 7.80819 32.3152 7.81619 32.3009 7.81969C32.2316 7.85956 32.2085 7.94926 32.136 7.98913C32.0073 8.04228 32.0172 8.20507 31.9084 8.27484C31.9074 8.28954 31.9021 8.30364 31.8934 8.31543C31.8846 8.32722 31.8726 8.3362 31.8589 8.34129C31.7533 8.40109 31.7665 8.55723 31.6511 8.61371C31.5191 8.66687 31.529 8.83298 31.4235 8.90607C31.4244 8.91947 31.421 8.93281 31.4139 8.94416C31.4068 8.95551 31.3963 8.96428 31.3839 8.96919C31.3497 8.98584 31.3213 9.01253 31.3024 9.04573C31.2836 9.07894 31.2752 9.11712 31.2783 9.15524C31.2885 9.16713 31.2995 9.17824 31.3113 9.18846L31.2123 9.39112H31.1958C31.1514 9.4061 31.1117 9.43243 31.0804 9.46753L30.9484 9.72667C30.9484 9.76321 30.9484 9.79976 30.9484 9.83298L30.7208 10.2981L30.6252 10.3214L30.4932 10.5905L30.3151 11.1054L30.2359 11.3081L29.9654 11.8994L29.906 12.0921C29.9588 12.2549 29.7741 12.3845 29.8401 12.5506C29.906 12.7134 29.7807 12.8463 29.7807 12.9991L29.5432 13.6037L29.2133 14.4044C29.1902 14.4642 29.1704 14.524 29.1506 14.5871C29.1309 14.6503 29.1111 14.7765 29.1243 14.8762C29.0701 14.9203 29.0295 14.979 29.0073 15.0455C28.9851 15.112 28.9822 15.1835 28.9989 15.2516C29.0517 15.4111 28.8604 15.5373 28.9362 15.7001C28.9758 15.9393 28.735 16.1121 28.7845 16.3645C28.7853 16.396 28.7748 16.4267 28.7548 16.4509C28.7594 16.4669 28.7683 16.4812 28.7806 16.4924C28.7928 16.5035 28.8079 16.511 28.8241 16.514L28.6657 16.9958C28.6905 17.1453 28.6674 17.2989 28.5998 17.4343L28.6624 17.4808C28.6327 17.5805 28.6064 17.6802 28.5767 17.7798L28.6492 17.823V17.8396C28.6251 17.8438 28.6018 17.8517 28.58 17.8629C28.547 17.9858 28.4414 18.0921 28.4942 18.2317C28.4967 18.2451 28.4956 18.259 28.4909 18.2718C28.4863 18.2847 28.4783 18.2961 28.4678 18.3047C28.5008 18.431 28.3787 18.5406 28.4348 18.6669C28.4909 18.8263 28.2996 18.9526 28.3754 19.112C28.3952 19.1918 28.3491 19.2782 28.3952 19.3546C28.415 19.4343 28.3689 19.5174 28.3952 19.5938C28.4249 19.6735 28.3754 19.7566 28.415 19.8363C28.415 20.0323 28.3853 20.2283 28.415 20.4243C28.4414 20.5041 28.3985 20.5838 28.415 20.6635C28.4348 20.6878 28.4632 20.7034 28.4942 20.7067V20.7267C28.4859 20.7492 28.4859 20.7739 28.4942 20.7964C28.4768 20.8298 28.4614 20.8642 28.448 20.8994C28.5206 21.0124 28.4711 21.122 28.448 21.2317C28.4733 21.2501 28.4966 21.2712 28.5173 21.2948C28.5173 21.3546 28.4876 21.4144 28.4711 21.4742C28.4944 21.4889 28.5165 21.5056 28.5371 21.524C28.514 21.6204 28.4909 21.7167 28.4645 21.813C28.4808 21.8514 28.4891 21.8926 28.4891 21.9343C28.4891 21.976 28.4808 22.0172 28.4645 22.0556C28.4831 22.0933 28.4928 22.1348 28.4928 22.1768C28.4928 22.2189 28.4831 22.2604 28.4645 22.2981C28.4863 22.3354 28.4977 22.3778 28.4977 22.421C28.4977 22.4642 28.4863 22.5067 28.4645 22.5439C28.5523 22.8087 28.5648 23.0929 28.5008 23.3645C28.5921 23.5225 28.6367 23.7035 28.6294 23.8861C28.8104 23.9857 28.9515 24.1454 29.0286 24.338C29.1249 24.3904 29.2014 24.4733 29.2463 24.5738H29.2265C29.1977 24.597 29.1773 24.6291 29.1684 24.6651C29.1594 24.7011 29.1625 24.7391 29.177 24.7732C29.2199 24.8496 29.177 24.936 29.2034 25.0124C29.2397 25.0921 29.1869 25.1785 29.2232 25.2582C29.2424 25.3008 29.2568 25.3453 29.2661 25.3911C29.2659 25.4253 29.2592 25.4592 29.2463 25.4908C29.2463 25.5406 29.276 25.5871 29.2925 25.637C29.2926 25.6669 29.2859 25.6965 29.2727 25.7233C29.2726 25.7351 29.275 25.7468 29.2798 25.7576C29.2845 25.7684 29.2915 25.778 29.3002 25.7859C29.309 25.7938 29.3193 25.7997 29.3305 25.8032C29.3416 25.8067 29.3534 25.8078 29.3651 25.8064C29.3669 25.8285 29.3669 25.8507 29.3651 25.8728L29.4673 26.0589C29.4277 26.1951 30.0875 26.7732 30.2326 26.4808C30.3778 26.1885 30.4767 25.8463 30.8726 25.7632C30.9424 25.7383 31.0037 25.6937 31.0493 25.6349C31.0949 25.576 31.1228 25.5053 31.1299 25.431C31.2863 25.0504 31.5098 24.7015 31.7896 24.4011C32.0139 24.2316 31.9578 23.8994 32.1756 23.7366C32.1819 23.7051 32.1954 23.6755 32.2151 23.6503C32.2584 23.62 32.2938 23.5799 32.3185 23.533C32.3432 23.4862 32.3564 23.4342 32.357 23.3812L32.39 23.4144L32.4361 23.3878C32.6341 23.2449 32.5879 22.9526 32.766 22.8064L32.8452 22.6237C32.8964 22.5852 32.9377 22.535 32.9658 22.4772C32.9939 22.4195 33.008 22.3558 33.0068 22.2915C33.0085 22.2827 33.0096 22.2738 33.0101 22.2649ZM48.3293 16.1951C48.3085 16.2112 48.2843 16.2223 48.2585 16.2274C48.2328 16.2326 48.2062 16.2318 48.1808 16.225C48.1479 16.2528 48.1091 16.273 48.0675 16.2839C48.0259 16.2948 47.9823 16.2962 47.94 16.2881V16.3047C47.8953 16.2882 47.8462 16.2882 47.8015 16.3047C47.7487 16.3047 47.6926 16.3047 47.6465 16.3247C47.5706 16.3546 47.498 16.2748 47.4221 16.3247C47.4162 16.3298 47.4086 16.3327 47.4007 16.3327C47.3928 16.3327 47.3852 16.3298 47.3793 16.3247C47.3653 16.322 47.3509 16.3241 47.3383 16.3307C47.3257 16.3374 47.3157 16.3481 47.31 16.3612L47.1451 16.318C47.1225 16.3317 47.0974 16.3405 47.0713 16.3439C47.0451 16.3474 47.0186 16.3453 46.9933 16.338C46.9501 16.3682 46.8968 16.3801 46.8449 16.3712C46.8228 16.3874 46.797 16.3978 46.7699 16.4013C46.7428 16.4048 46.7152 16.4013 46.6898 16.3911C46.6652 16.4034 46.6381 16.4098 46.6107 16.4098C46.5832 16.4098 46.5561 16.4034 46.5315 16.3911C46.4656 16.4229 46.3904 16.4288 46.3204 16.4077C46.3113 16.4235 46.3002 16.438 46.2874 16.4509L46.1653 16.431C46.1202 16.46 46.0691 16.4781 46.0158 16.4839C45.9626 16.4897 45.9088 16.4829 45.8586 16.4642C45.8348 16.4773 45.8081 16.4842 45.781 16.4842C45.754 16.4842 45.7273 16.4773 45.7035 16.4642L45.6705 16.514L45.4924 16.4808C45.4804 16.4944 45.4694 16.5088 45.4594 16.524L45.3341 16.4908L45.3044 16.5439H45.09L45.0603 16.5938C45.0509 16.5898 45.0408 16.5877 45.0306 16.5877C45.0204 16.5877 45.0103 16.5898 45.0009 16.5938L44.8755 16.5572C44.8512 16.5685 44.8248 16.5744 44.798 16.5744C44.7713 16.5744 44.7448 16.5685 44.7205 16.5572C44.6985 16.5723 44.6735 16.5821 44.6473 16.5862C44.621 16.5902 44.5942 16.5882 44.5688 16.5805L44.4401 16.6602L44.3577 16.7001H44.2422C44.2094 16.7282 44.1706 16.7483 44.1288 16.7586C44.087 16.769 44.0434 16.7694 44.0014 16.7599L43.8727 16.8596C43.7573 16.8363 43.6418 16.8994 43.5429 16.8596C43.4416 16.918 43.3292 16.9543 43.213 16.9659L43.1173 16.9924C43.0864 17.0227 43.0486 17.0449 43.0072 17.0571C42.9658 17.0693 42.9221 17.071 42.8798 17.0622C42.8604 17.0796 42.8368 17.0917 42.8115 17.0975C42.7861 17.1033 42.7597 17.1026 42.7347 17.0954L42.7017 17.1453L42.639 17.1253C42.6284 17.1394 42.6142 17.1502 42.5979 17.1566C42.5816 17.1631 42.5639 17.1649 42.5467 17.1619C42.5359 17.1797 42.5271 17.1987 42.5203 17.2184L42.3125 17.2416L42.2234 17.2748C42.1632 17.3007 42.1038 17.3284 42.0453 17.3579C42.036 17.3729 42.0227 17.3849 42.007 17.3925C41.9912 17.4001 41.9736 17.4031 41.9562 17.4011C41.9489 17.4212 41.9389 17.4402 41.9265 17.4576H41.8704L41.8374 17.514H41.7814L41.7022 17.5705C41.6362 17.7067 41.468 17.6934 41.3723 17.7964L41.1678 17.8297C41.0711 17.8979 40.956 17.935 40.8379 17.936C40.828 17.9497 40.8142 17.9602 40.7984 17.9661C40.7825 17.972 40.7653 17.9731 40.7489 17.9692C40.7391 17.9836 40.7257 17.9952 40.7101 18.0028C40.6945 18.0104 40.6771 18.0137 40.6598 18.0124C40.6017 18.0428 40.5445 18.0749 40.4883 18.1087C40.4786 18.1231 40.4651 18.1344 40.4494 18.1415C40.4337 18.1485 40.4163 18.151 40.3992 18.1486C40.3906 18.167 40.3807 18.1848 40.3695 18.2018H40.3134L40.2838 18.2649H40.231C40.2097 18.3023 40.1808 18.3347 40.1461 18.3599C40.1114 18.3851 40.0717 18.4025 40.0298 18.4111C40.023 18.4273 40.0115 18.4411 39.9968 18.4506C39.9821 18.4601 39.9648 18.4649 39.9473 18.4642C39.9017 18.5375 39.8295 18.5899 39.7461 18.6104L39.6339 18.7267C39.6016 18.7288 39.5701 18.7379 39.5416 18.7532C39.5095 18.7645 39.4802 18.7826 39.4558 18.8064C39.403 18.8064 39.3931 18.8861 39.3436 18.9061C39.3113 18.9164 39.2826 18.9361 39.2612 18.9625C39.2051 18.9625 39.1919 19.0356 39.149 19.0622C39.0792 19.1065 39.014 19.1577 38.9544 19.215C38.8983 19.2317 38.8884 19.2948 38.8422 19.3247C38.7894 19.3446 38.773 19.4011 38.7367 19.4376C38.6476 19.4576 38.674 19.5772 38.5981 19.6037C38.5486 19.627 38.5387 19.6901 38.4893 19.7167C38.4365 19.74 38.4233 19.7998 38.3837 19.833C38.321 19.8529 38.3078 19.9194 38.2683 19.9592C38.2685 19.9683 38.2658 19.9772 38.2604 19.9844C38.255 19.9917 38.2473 19.9968 38.2386 19.9991C38.1693 20.0356 38.1924 20.142 38.1132 20.1719C38.0406 20.2084 38.0571 20.3114 37.9846 20.3513C37.9054 20.3812 37.9252 20.4908 37.8526 20.5273C37.757 20.6104 37.6976 20.7233 37.6085 20.813C37.559 20.833 37.5458 20.8828 37.5227 20.926H37.4997L37.4304 21.0888C37.4205 21.0843 37.4099 21.082 37.399 21.082C37.3882 21.082 37.3776 21.0843 37.3677 21.0888C37.305 21.112 37.2885 21.1752 37.249 21.2217C37.2094 21.2682 37.249 21.2516 37.2226 21.2582C37.1962 21.2649 37.1665 21.3413 37.1236 21.3745C37.0411 21.3978 37.0642 21.514 36.9884 21.5439C36.9323 21.5738 36.9125 21.6336 36.8762 21.6802C36.8772 21.6885 36.875 21.6969 36.8701 21.7036C36.8652 21.7104 36.858 21.7151 36.8498 21.7167C36.8156 21.7413 36.792 21.7781 36.7838 21.8197C36.7778 21.8162 36.771 21.8144 36.764 21.8144C36.7571 21.8144 36.7503 21.8162 36.7443 21.8197C36.6618 21.8562 36.675 21.9625 36.609 22.0124C36.6092 22.0214 36.6069 22.0303 36.6022 22.0379C36.5975 22.0456 36.5907 22.0517 36.5826 22.0556C36.5826 22.0556 36.5826 22.0556 36.5562 22.0788C36.5298 22.1021 36.5562 22.0988 36.5562 22.1087C36.5562 22.1187 36.5562 22.1087 36.5562 22.1087C36.5352 22.1344 36.5215 22.1655 36.5166 22.1984L36.4639 22.2283C36.388 22.2616 36.4045 22.3645 36.3385 22.4077C36.233 22.4509 36.2725 22.5938 36.1802 22.6436C36.0812 22.7034 36.1043 22.8363 36.0218 22.9027C36.0241 22.9066 36.0253 22.9109 36.0255 22.9153C36.0256 22.9197 36.0247 22.9241 36.0227 22.9281C36.0207 22.9321 36.0178 22.9355 36.0142 22.938C36.0106 22.9405 36.0064 22.9421 36.002 22.9426C35.9064 23.0057 35.9295 23.1386 35.847 23.2117L35.7975 23.3147C35.7085 23.3745 35.7382 23.5041 35.6491 23.5606C35.5963 23.5838 35.5864 23.6336 35.5831 23.6868C35.5586 23.6967 35.5378 23.7141 35.5237 23.7366C35.4116 23.7865 35.4479 23.9293 35.3621 23.9924C35.3643 24.0012 35.3631 24.0105 35.3588 24.0185C35.3545 24.0265 35.3475 24.0326 35.339 24.0356C35.217 24.132 35.2565 24.3147 35.1444 24.4177C35.019 24.4808 35.0652 24.6503 34.963 24.73C34.831 24.7865 34.8871 24.9625 34.7782 25.0323C34.6463 25.1287 34.6925 25.318 34.5737 25.421C34.576 25.4303 34.575 25.4401 34.5707 25.4486C34.5665 25.4571 34.5594 25.4638 34.5506 25.4675C34.5231 25.4904 34.5013 25.5194 34.487 25.5523C34.4727 25.5852 34.4662 25.621 34.4682 25.6569C34.4753 25.6663 34.4843 25.6742 34.4945 25.6802L34.323 25.8994H34.2702C34.2471 26.0223 34.1086 26.0722 34.0855 26.1984H34.0294C33.9074 26.4642 33.7853 26.7333 33.66 27.0024C33.6072 27.0024 33.5808 27.0622 33.5544 27.1054C33.5336 27.1023 33.5125 27.1023 33.4917 27.1054C33.485 27.1324 33.4719 27.1574 33.4535 27.1783C33.4352 27.1991 33.412 27.2151 33.3862 27.225C33.3598 27.2948 33.3367 27.3712 33.2542 27.3944C33.2475 27.4216 33.234 27.4466 33.2149 27.467C33.1959 27.4873 33.1719 27.5024 33.1454 27.5107C33.1283 27.5846 33.0833 27.649 33.02 27.6901L32.9474 27.8496L32.931 27.9027V28.019L32.9705 28.1121V28.1785V28.2649V28.3546H33.086L33.1454 28.2682L33.2048 28.235L33.4423 28.0821L33.7094 27.936L33.815 27.8861C34.0673 27.6857 34.3533 27.5326 34.6595 27.4343C34.8655 27.38 35.0631 27.2973 35.2466 27.1885L35.9526 26.9792C35.9679 26.9856 35.9849 26.9869 36.001 26.9827C36.0171 26.9785 36.0314 26.9691 36.0416 26.9559C36.0682 26.9628 36.0961 26.9627 36.1226 26.9557C36.1492 26.9488 36.1735 26.9351 36.1934 26.916C36.6371 26.8727 37.0731 26.7699 37.4898 26.6104C37.5021 26.6213 37.5168 26.6293 37.5326 26.6336C37.9429 26.6895 38.3605 26.6308 38.74 26.4642C39.2966 26.188 39.8669 25.9407 40.4487 25.7233C40.4784 25.657 40.5305 25.6035 40.5958 25.5725C40.6611 25.5414 40.7353 25.5348 40.805 25.5539L41.0623 25.4177C41.0704 25.4021 41.0828 25.3891 41.0979 25.3802C41.1131 25.3714 41.1305 25.3671 41.148 25.3679C41.1559 25.3523 41.1684 25.3395 41.1837 25.3312C41.199 25.3228 41.2165 25.3194 41.2338 25.3214C41.28 25.215 41.4053 25.2117 41.4779 25.1353L41.7022 25.0556C41.7084 25.0391 41.7191 25.0247 41.7332 25.0141C41.7472 25.0035 41.7639 24.9971 41.7814 24.9958C41.8276 24.8529 42.0156 24.9426 42.075 24.8164C42.2102 24.8164 42.3224 24.6868 42.4675 24.7267C42.4871 24.7084 42.5113 24.696 42.5375 24.6907C42.5637 24.6854 42.5909 24.6875 42.6159 24.6968C42.6271 24.6827 42.6421 24.6723 42.6592 24.667C42.6763 24.6617 42.6945 24.6616 42.7116 24.6669C42.7179 24.6496 42.7256 24.633 42.7347 24.617H42.8007L42.8831 24.5672C42.8904 24.5511 42.9019 24.5372 42.9165 24.5273C42.931 24.5173 42.948 24.5116 42.9656 24.5107C43.0443 24.4239 43.1445 24.3597 43.2559 24.3247C43.2635 24.3093 43.2753 24.2964 43.2899 24.2876C43.3045 24.2787 43.3213 24.2743 43.3384 24.2748C43.3546 24.2431 43.38 24.2169 43.4111 24.1997C43.4423 24.1826 43.4778 24.1752 43.5132 24.1785L43.599 24.1386C43.6518 24.0726 43.723 24.024 43.8035 23.9991C43.8054 23.977 43.8054 23.9548 43.8035 23.9326H43.8694C43.9151 23.8594 43.9873 23.807 44.0707 23.7865C44.0828 23.7631 44.0997 23.7424 44.1201 23.7259C44.1405 23.7093 44.1641 23.6971 44.1894 23.6901L44.262 23.627C44.2719 23.6023 44.2875 23.5803 44.3076 23.563C44.3277 23.5456 44.3517 23.5334 44.3774 23.5273C44.3863 23.502 44.4016 23.4794 44.4219 23.4619C44.4422 23.4444 44.4667 23.4326 44.4929 23.4277L44.5688 23.3612C44.5906 23.3125 44.6293 23.2736 44.6776 23.2516L44.7601 23.0954C44.7601 23.1187 44.7931 23.122 44.8162 23.0954C44.869 23.0755 44.8821 23.0124 44.925 22.9858C44.9811 22.9659 44.9943 22.9027 45.0339 22.8728C45.1197 22.8463 45.0966 22.7366 45.1691 22.7001C45.2483 22.6702 45.2285 22.5606 45.3011 22.524C45.4363 22.3679 45.5848 22.2217 45.7332 22.0788C45.8256 22.0788 45.7992 21.9459 45.8718 21.9127C45.9443 21.8795 45.9377 21.8297 45.9806 21.7998C46.0367 21.7998 46.0499 21.72 46.0895 21.6901C46.1521 21.6669 46.1686 21.6037 46.2049 21.5606C46.2046 21.5524 46.2071 21.5443 46.2118 21.5377C46.2166 21.5311 46.2235 21.5262 46.2313 21.524C46.2808 21.4941 46.2907 21.4376 46.3303 21.4044C46.4193 21.3712 46.4028 21.2649 46.4688 21.215C46.4686 21.206 46.471 21.1972 46.4757 21.1895C46.4803 21.1818 46.4871 21.1757 46.4952 21.1719C46.5111 21.163 46.5244 21.15 46.5337 21.1342C46.543 21.1185 46.5479 21.1005 46.548 21.0821C46.5676 21.0705 46.5854 21.0559 46.6008 21.039C46.5997 21.0302 46.6017 21.0214 46.6066 21.0141C46.6114 21.0067 46.6187 21.0014 46.6272 20.9991C46.6898 20.9592 46.6931 20.8895 46.7195 20.8297C46.725 20.8329 46.7313 20.8346 46.7377 20.8346C46.744 20.8346 46.7503 20.8329 46.7558 20.8297C46.8383 20.7898 46.8284 20.6835 46.8911 20.6303C46.8895 20.6224 46.8906 20.6142 46.8942 20.607C46.8978 20.5998 46.9036 20.594 46.9109 20.5905C47.0098 20.534 46.9834 20.3978 47.0692 20.3313C47.0857 20.2948 47.0989 20.2582 47.1154 20.2184L47.2638 19.7599C47.4169 19.372 47.5491 18.9761 47.6597 18.5738C47.7025 18.4709 47.7421 18.3645 47.785 18.2616C47.8058 18.2646 47.8269 18.2646 47.8477 18.2616C47.8479 18.2518 47.8504 18.2421 47.855 18.2335C47.8596 18.2248 47.8661 18.2174 47.8741 18.2117L47.9532 17.9393L48.0093 17.8297H48.0654C48.0984 17.7433 48.1314 17.6569 48.1677 17.5738C48.3029 17.4044 48.2765 17.1619 48.4217 16.9991C48.4678 16.8795 48.5173 16.7632 48.5536 16.6436C48.646 16.3346 48.6295 16.3081 48.3293 16.1951ZM41.8935 23.6934H41.844C41.8604 23.6903 41.8772 23.6903 41.8935 23.6934ZM42.4345 17.4144V17.4343V17.4144ZM43.6187 23.3313C43.6202 23.3248 43.6202 23.318 43.6187 23.3114H43.6352L43.6187 23.3313ZM44.2224 20.8695H44.2521C44.2478 20.8682 44.2434 20.867 44.2389 20.8662L44.2224 20.8695ZM44.8624 18.0057H44.8393H44.8788C44.8788 18.0057 44.8624 17.9991 44.8624 18.0057ZM46.007 20.6237C46.0565 20.6137 46.0268 20.6204 46.0136 20.6104L46.007 20.6237ZM47.3034 19.2582C47.3163 19.2383 47.3274 19.2171 47.3364 19.1951C47.3364 19.205 47.334 19.2147 47.3294 19.2234C47.3248 19.2321 47.3181 19.2395 47.31 19.2449L47.3034 19.2582ZM26.3533 20.6037C26.3533 20.5439 26.3336 20.4841 26.327 20.4277C26.3027 20.3846 26.2899 20.336 26.2899 20.2865C26.2899 20.237 26.3027 20.1883 26.327 20.1453L26.2643 20.0921H26.2841C26.2972 20.0782 26.306 20.0608 26.3095 20.0419C26.313 20.023 26.3111 20.0036 26.3039 19.9858C26.261 19.8363 26.3039 19.6802 26.2478 19.5307C26.2478 19.4709 26.2148 19.4144 26.2016 19.3546C26.1816 19.2981 26.1651 19.2404 26.1521 19.1818C26.1125 19.0323 26.1356 18.8728 26.096 18.7233C26.0903 18.6548 26.0781 18.587 26.0598 18.5207C26.0598 18.4642 26.0301 18.4044 26.0169 18.3479C25.9707 18.2549 26.0565 18.1586 26.0169 18.0655C26.0075 18.0047 25.9897 17.9454 25.9641 17.8895C25.9542 17.8291 25.9376 17.77 25.9146 17.7134C25.8651 17.5672 26.0367 17.4609 25.9905 17.3147C26.0011 17.2773 26.0166 17.2416 26.0367 17.2084C26.0136 17.1087 26.0894 17.0124 26.0367 16.9127C26.0367 16.8562 26.0037 16.7964 25.9938 16.74C25.9509 16.6436 26.0334 16.5473 25.9938 16.4542C25.9854 16.3946 25.9688 16.3364 25.9443 16.2815C25.9313 16.2219 25.9148 16.1631 25.8948 16.1054C25.8684 15.9526 25.8948 15.7931 25.8453 15.6436C25.8339 15.5836 25.8173 15.5247 25.7959 15.4675C25.7695 15.3147 25.7959 15.1586 25.7497 15.0057C25.7497 14.8529 25.7497 14.6968 25.7101 14.5439C25.7048 14.5222 25.6936 14.5024 25.6779 14.4866C25.6623 14.4708 25.6426 14.4596 25.621 14.4542L25.6606 14.3679C25.6087 14.3055 25.5758 14.2294 25.5658 14.1486C25.5559 14.0679 25.5693 13.9859 25.6045 13.9127L25.565 13.7366C25.5139 13.6747 25.4805 13.5999 25.4683 13.5204C25.4561 13.4408 25.4656 13.3594 25.4957 13.2848C25.4957 13.225 25.4693 13.1685 25.4528 13.1087L25.4 12.9659C25.4 12.9094 25.367 12.8529 25.3472 12.7964L25.2549 12.73L25.3143 12.6137L25.2087 12.5406C25.2283 12.5051 25.2459 12.4685 25.2615 12.431C25.2615 12.3745 25.2252 12.318 25.2087 12.2582C25.1922 12.1984 25.1724 12.1453 25.1559 12.0855C25.1394 12.0257 25.1196 11.9725 25.1031 11.9127C25.0866 11.8529 25.0669 11.7998 25.0471 11.74C25.0273 11.6802 25.0108 11.627 24.991 11.5705C24.9712 11.514 24.9547 11.4542 24.9382 11.3978L24.8821 11.2283C24.8248 11.1937 24.7829 11.1381 24.765 11.0732C24.7472 11.0082 24.7549 10.9389 24.7865 10.8795C24.7865 10.823 24.7568 10.7632 24.7403 10.7067C24.7238 10.6503 24.7073 10.5905 24.6941 10.5307C24.6707 10.4879 24.6584 10.4399 24.6584 10.3911C24.6584 10.3423 24.6707 10.2943 24.6941 10.2516C24.6593 10.2281 24.6229 10.207 24.5852 10.1885C24.6082 10.1549 24.6281 10.1193 24.6446 10.0822C24.6117 10.0603 24.5775 10.0403 24.5424 10.0224C24.5589 9.98248 24.572 9.94594 24.5885 9.90939C24.605 9.87285 24.5622 9.79311 24.5457 9.73331L24.4896 9.55059C24.4698 9.49411 24.45 9.43763 24.4269 9.38115C24.3603 9.33705 24.3063 9.27609 24.2704 9.20437C24.2345 9.13266 24.218 9.0527 24.2224 8.97252L24.163 8.80308L24.0509 8.73996C24.0509 8.70674 24.0739 8.67019 24.0838 8.63365L23.8727 8.31803C23.8727 8.28481 23.8925 8.25159 23.9057 8.21836C23.9189 8.18514 23.8562 8.10873 23.8331 8.05225C23.7711 8.00319 23.7202 7.94136 23.6838 7.87089C23.6474 7.80042 23.6263 7.72293 23.622 7.64361C23.5871 7.62327 23.5507 7.6055 23.5132 7.59046V7.57385C23.5297 7.54323 23.543 7.51094 23.5527 7.4775C23.4762 7.41951 23.4253 7.33364 23.4109 7.2383C23.3764 7.21883 23.3399 7.20324 23.302 7.19179C23.2823 7.12866 23.2592 7.06886 23.2394 7.00906C23.1566 6.95595 23.0975 6.87259 23.0744 6.7765L22.9293 6.66355C22.9441 6.62051 22.9441 6.57369 22.9293 6.53066C22.9095 6.42434 22.8006 6.38448 22.7578 6.29478C22.7347 6.1785 22.6258 6.13199 22.5631 6.04893C22.5476 6.04633 22.5332 6.03933 22.5215 6.02873C22.5098 6.01814 22.5014 6.00439 22.4972 5.98913C22.4835 5.94745 22.4551 5.91225 22.4175 5.89021C22.3798 5.86817 22.3354 5.86081 22.2926 5.86953C22.2926 5.86953 22.2926 5.86953 22.2926 5.85292C22.3008 5.82563 22.3074 5.7979 22.3124 5.76986L22.2366 5.72667L22.1508 5.61703C22.0848 5.54395 21.9826 5.5074 21.9463 5.40773C21.8935 5.24826 21.7055 5.23498 21.6164 5.10209C21.6003 5.10177 21.5847 5.09605 21.5722 5.08582C21.5596 5.07559 21.5508 5.06144 21.5471 5.04561C21.501 4.89943 21.3129 4.89943 21.2634 4.75989C21.2305 4.60042 21.0292 4.60375 20.9798 4.46421C20.9534 4.30806 20.7521 4.31139 20.7126 4.16853C20.6796 4.01571 20.4817 4.01571 20.4355 3.87617C20.3926 3.73996 20.2705 3.71006 20.1584 3.66022C20.1386 3.66022 20.1254 3.69012 20.1089 3.70341L20.0429 3.53398C19.8549 3.42102 19.6372 3.34793 19.5481 3.11537L19.1622 2.90607C19.1718 2.89829 19.1796 2.88843 19.1849 2.87721C19.1903 2.866 19.193 2.85372 19.193 2.84129C19.193 2.82885 19.1903 2.81657 19.1849 2.80536C19.1796 2.79415 19.1718 2.78429 19.1622 2.7765C19.145 2.77533 19.1286 2.76901 19.1151 2.75835C19.1016 2.74768 19.0916 2.73318 19.0863 2.7167C19.0368 2.59378 18.9115 2.5672 18.8125 2.50408C18.8125 2.48082 18.8125 2.45424 18.7828 2.42767C18.766 2.42414 18.7504 2.41655 18.7371 2.40555C18.7239 2.39456 18.7136 2.38048 18.707 2.36454L18.575 2.30142L18.4727 2.19179C18.4393 2.16447 18.3971 2.1503 18.354 2.15192L18.3738 2.06554L18.001 1.81637C18.001 1.77983 18.001 1.73996 18.001 1.70009L17.879 1.66022L17.813 1.61371C17.7904 1.54162 17.7594 1.47248 17.7206 1.40773C17.6811 1.25491 17.4831 1.25823 17.437 1.11537C17.3941 0.955906 17.2027 0.949261 17.1368 0.813049C17.1207 0.810164 17.1053 0.803953 17.0917 0.794805C17.078 0.785658 17.0664 0.773771 17.0576 0.759893C17.035 0.694088 16.9882 0.639515 16.9268 0.607386C16.8655 0.575256 16.7942 0.568009 16.7277 0.587135C16.6669 0.594823 16.6072 0.609309 16.5496 0.630325C16.4846 0.643532 16.4235 0.671986 16.3715 0.713381L16.2098 1.00906C16.2296 1.10541 16.1637 1.19511 16.1769 1.29145C16.181 1.32848 16.1729 1.36585 16.1538 1.39777C16.1538 1.50076 16.0878 1.5971 16.1274 1.70341C16.1328 1.72263 16.1424 1.74037 16.1555 1.75532C16.1687 1.77028 16.185 1.78206 16.2032 1.78979C16.1801 1.85624 16.1538 1.92268 16.1274 1.98913C16.1487 2.03505 16.158 2.08566 16.1546 2.13622C16.1511 2.18678 16.1349 2.23562 16.1076 2.27816C16.1235 2.29202 16.1379 2.30762 16.1505 2.32468C16.1027 2.3946 16.0816 2.47954 16.0911 2.56388C16.1604 2.70341 15.9624 2.81637 16.0449 2.95923C16.0449 3.05557 15.9888 3.14195 16.0152 3.24162C16.0206 3.25614 16.0213 3.27201 16.0171 3.28694C16.013 3.30187 16.0042 3.31509 15.9921 3.32468C15.969 3.38116 15.9921 3.41438 16.0185 3.4177C15.9645 3.48216 15.9261 3.55835 15.9064 3.64029C15.8968 3.65943 15.889 3.67945 15.8833 3.70009C15.776 3.79941 15.71 3.93588 15.6985 4.08215L15.6161 4.29145C15.6161 4.37783 15.5699 4.45757 15.5732 4.54395C15.5561 4.56842 15.5362 4.59073 15.5138 4.61039C15.4577 4.7167 15.3687 4.80973 15.4017 4.94262C15.407 4.95779 15.4069 4.97434 15.4015 4.98947C15.3961 5.00461 15.3857 5.0174 15.372 5.02567C15.372 5.22501 15.1839 5.3579 15.2037 5.56056C15.2094 5.57772 15.2096 5.59626 15.2043 5.61355C15.199 5.63084 15.1884 5.646 15.174 5.6569C15.2004 5.85624 14.9761 5.98913 15.0289 6.19179C15.0289 6.2682 15.0289 6.34793 15.0487 6.42434L14.9332 6.70009C14.9513 6.74689 14.9587 6.79722 14.9547 6.84728C14.9507 6.89734 14.9354 6.94584 14.9101 6.98913C15.0124 7.2383 14.8805 7.45424 14.8079 7.67684C14.8313 7.72077 14.8435 7.76984 14.8435 7.81969C14.8435 7.86954 14.8313 7.91862 14.8079 7.96255C14.8316 8.00639 14.844 8.0555 14.844 8.10541C14.844 8.15531 14.8316 8.20442 14.8079 8.24826C14.8338 8.28952 14.8492 8.3366 14.8526 8.38529C14.8561 8.43399 14.8475 8.48279 14.8277 8.52733C14.8928 8.67286 14.901 8.83775 14.8508 8.98913L14.9266 9.0589L14.8574 9.27152C14.8921 9.34349 14.912 9.42179 14.916 9.50171C14.92 9.58163 14.9079 9.66153 14.8805 9.73664C14.9033 9.78015 14.9152 9.82862 14.9152 9.87783C14.9152 9.92704 14.9033 9.97551 14.8805 10.019C14.9025 10.0622 14.9139 10.11 14.9139 10.1586C14.9139 10.2071 14.9025 10.2549 14.8805 10.2981C14.8805 10.3579 14.8805 10.421 14.8805 10.4808C14.9064 10.5221 14.9218 10.5692 14.9252 10.6179C14.9287 10.6665 14.9201 10.7153 14.9003 10.7599C14.9198 10.785 14.9318 10.8153 14.9347 10.8471C14.9377 10.879 14.9314 10.911 14.9167 10.9393C14.9411 10.9811 14.956 11.0277 14.9606 11.0759C14.9652 11.1241 14.9592 11.1727 14.9431 11.2184C14.9629 11.2433 14.9752 11.2734 14.9787 11.3052C14.9822 11.3369 14.9768 11.369 14.9629 11.3978C14.985 11.4415 14.9964 11.4899 14.9964 11.539C14.9964 11.588 14.985 11.6364 14.9629 11.6802C14.9838 11.7045 14.9973 11.7342 15.002 11.766C15.0066 11.7978 15.0022 11.8302 14.9893 11.8596C15.0158 11.8998 15.0322 11.9458 15.0374 11.9938C15.0426 12.0418 15.0363 12.0903 15.019 12.1353C15.0393 12.16 15.0522 12.1899 15.0563 12.2216C15.0604 12.2534 15.0555 12.2857 15.0421 12.3147C15.1358 12.442 15.1825 12.5983 15.174 12.7566C15.1905 12.8164 15.2037 12.8728 15.2169 12.9326C15.2384 12.9558 15.2532 12.9845 15.2596 13.0156C15.266 13.0466 15.2638 13.0789 15.2532 13.1087C15.275 13.1318 15.2903 13.1602 15.2979 13.191C15.3054 13.2219 15.3048 13.2542 15.2961 13.2848C15.3176 13.308 15.3324 13.3367 15.3388 13.3677C15.3452 13.3988 15.343 13.431 15.3324 13.4609C15.4646 13.7341 15.5526 14.0268 15.593 14.328C15.6186 14.3471 15.6381 14.3733 15.6492 14.4034C15.6603 14.4334 15.6626 14.4661 15.6557 14.4974L15.7216 14.6669L15.7909 14.833C15.8934 14.9496 15.9559 15.0964 15.969 15.2516C16.1225 15.4074 16.222 15.609 16.2527 15.8263C16.3205 15.8714 16.3773 15.9312 16.419 16.0013C16.4607 16.0715 16.4862 16.1502 16.4935 16.2317L16.6024 16.3047C16.6024 16.3346 16.5793 16.3679 16.5694 16.4011C16.6066 16.4306 16.637 16.4678 16.6587 16.5103C16.6803 16.5527 16.6926 16.5993 16.6947 16.6469C16.721 16.6648 16.7413 16.6902 16.753 16.7198C16.7648 16.7494 16.7675 16.7819 16.7607 16.813C16.7831 16.8364 16.7986 16.8655 16.8056 16.8971C16.8126 16.9288 16.8107 16.9618 16.8003 16.9924L16.8894 17.0556C16.9004 17.3614 16.9902 17.6591 17.15 17.9194C17.1301 17.9554 17.1136 17.9932 17.1005 18.0323L17.1863 18.1918C17.247 18.2425 17.2968 18.3052 17.3325 18.3761C17.3683 18.4469 17.3892 18.5244 17.3941 18.6037C17.4341 18.6306 17.4678 18.6659 17.4929 18.7072C17.518 18.7485 17.5338 18.7948 17.5392 18.8429C17.5845 18.8636 17.6231 18.8967 17.6505 18.9384C17.6779 18.9801 17.6931 19.0288 17.6943 19.0788C17.7391 19.1012 17.7777 19.1345 17.8065 19.1757C17.8353 19.2169 17.8534 19.2647 17.8592 19.3147C17.9045 19.3351 17.9435 19.3675 17.972 19.4084C18.0005 19.4494 18.0174 19.4974 18.0208 19.5473C18.0671 19.5671 18.1079 19.598 18.1396 19.6374C18.1712 19.6768 18.1927 19.7234 18.2023 19.7732L18.3969 19.9027C18.3969 19.9393 18.3969 19.9725 18.3738 20.0057C18.4826 20.0855 18.608 20.1519 18.6245 20.3081C18.6709 20.3277 18.7113 20.3592 18.742 20.3994C18.7726 20.4396 18.7924 20.4871 18.7993 20.5373L19.1061 20.7267C19.089 20.762 19.0746 20.7987 19.0632 20.8363L19.1886 20.9027L19.2479 20.9792C19.282 21.0144 19.3209 21.0446 19.3634 21.0689C19.3619 21.0899 19.3619 21.111 19.3634 21.132C19.3988 21.1484 19.4302 21.1721 19.4558 21.2018L19.5217 21.225L19.5547 21.2881C19.6207 21.3546 19.7131 21.3944 19.7493 21.4875L19.7922 21.5107L19.8384 21.5473C19.9077 21.73 20.1683 21.7067 20.231 21.8961C20.2771 22.0522 20.4718 22.0556 20.5311 22.1984L20.5773 22.2184L20.6136 22.2549C20.6829 22.4443 20.9435 22.421 21.0094 22.6104C21.1051 22.8396 21.4152 22.8097 21.5207 23.0323L21.5735 23.0522L21.6164 23.0888C21.6264 23.1268 21.6494 23.16 21.6815 23.1825C21.7135 23.205 21.7524 23.2154 21.7912 23.2117C21.8836 23.3413 22.0683 23.3579 22.1211 23.5074L22.1706 23.5307L22.2102 23.5672C22.352 23.8164 22.6951 23.7964 22.8369 24.0423L22.8897 24.0622L22.9326 24.1021C23.0843 24.328 23.3548 24.3679 23.5626 24.514H23.7243L23.8002 24.6669L24.0706 24.8629C24.0686 24.8682 24.0686 24.8741 24.0706 24.8795C24.0509 24.9061 24.0509 24.9393 24.0706 24.9792L24.1201 25.0024L24.1564 25.0423C24.2059 25.1851 24.3939 25.1851 24.4434 25.3247C24.4489 25.3868 24.4681 25.447 24.4995 25.5008C24.4985 25.5134 24.5003 25.526 24.5045 25.5379C24.5088 25.5498 24.5155 25.5607 24.5242 25.5698C24.5329 25.5789 24.5435 25.586 24.5551 25.5907C24.5668 25.5954 24.5793 25.5976 24.5918 25.5971C24.5857 25.6241 24.578 25.6507 24.5687 25.6768C24.59 25.7001 24.6044 25.729 24.6102 25.7601C24.6161 25.7912 24.6131 25.8234 24.6017 25.8529C24.6257 25.8738 24.6429 25.9014 24.6511 25.9322C24.6594 25.963 24.6583 25.9955 24.6479 26.0257C24.6715 26.0482 24.6877 26.0775 24.6942 26.1096C24.7007 26.1417 24.6972 26.175 24.6842 26.2051C24.715 26.2457 24.7361 26.2929 24.7458 26.343C24.7555 26.3931 24.7536 26.4448 24.7403 26.4941C24.7651 26.5167 24.7928 26.5357 24.8227 26.5506C24.8392 26.617 24.8524 26.6835 24.8656 26.7466C24.843 26.781 24.8242 26.8177 24.8096 26.8562C24.8325 26.8785 24.8482 26.9072 24.8547 26.9386C24.8612 26.97 24.8581 27.0027 24.8458 27.0323C24.878 27.0564 24.9122 27.0776 24.9481 27.0954L25.3934 27.0522L25.4528 26.9393C25.212 26.637 25.6012 26.5307 25.6441 26.3147C25.588 26.122 25.7035 25.9825 25.7629 25.8097C25.7397 25.7831 25.713 25.7596 25.6837 25.74C25.7101 25.6669 25.7365 25.5971 25.7596 25.5273C25.7343 25.5029 25.7054 25.4828 25.6738 25.4675V25.431C25.696 25.3993 25.7159 25.366 25.7332 25.3313C25.7045 25.3083 25.6735 25.2883 25.6408 25.2715C25.6513 25.2486 25.6546 25.2231 25.6505 25.1982C25.6464 25.1733 25.635 25.1503 25.6177 25.132C25.6361 25.1198 25.6537 25.1065 25.6705 25.0921C25.7233 24.9493 25.8387 24.8263 25.8321 24.6602C25.8293 24.6229 25.8412 24.5859 25.8651 24.5572C25.8486 24.4542 25.9212 24.3612 25.8948 24.2582C25.8926 24.2422 25.8938 24.226 25.8984 24.2105C25.9029 24.195 25.9107 24.1807 25.9212 24.1685C25.9212 24.0622 25.9839 23.9692 25.9674 23.8629C25.9667 23.8248 25.9783 23.7875 26.0004 23.7566C26.0004 23.6669 26.0004 23.5805 26.0004 23.4908C26.0004 23.4908 26.0004 23.4908 26.0004 23.4742L26.0598 23.338C25.9377 23.0855 26.1521 22.833 26.0598 22.5805C26.0268 22.3047 26.2214 22.0622 26.1752 21.7865C26.2607 21.491 26.3268 21.1903 26.3731 20.8861C26.3472 20.8443 26.3318 20.7966 26.3284 20.7474C26.3249 20.6982 26.3335 20.6489 26.3533 20.6037ZM15.9954 7.7466C15.9954 7.72999 15.9789 7.72003 15.9723 7.70341L16.0383 7.73664L15.9954 7.7466ZM16.1241 12.5871C16.1241 12.5871 16.1241 12.5606 16.1241 12.5473L16.1769 12.5705L16.1241 12.5871ZM16.4078 2.12534H16.3814H16.4078ZM17.0675 10.7632C17.0675 10.7632 17.0675 10.7632 17.0873 10.7798L17.0675 10.7632ZM22.3355 17.9493L22.3751 17.9692C22.3654 17.9738 22.3545 17.9754 22.3439 17.9736C22.3333 17.9718 22.3234 17.9668 22.3157 17.9592L22.3355 17.9493ZM23.4703 18.7366C23.4733 18.7423 23.4779 18.7469 23.4835 18.7499L23.4703 18.7366ZM22.9392 33.0522L22.672 32.9858L22.54 32.9692L22.3289 32.8396C22.2592 32.8595 22.1859 32.8632 22.1145 32.8506C22.0431 32.8379 21.9754 32.8092 21.9166 32.7665C21.7137 32.803 21.5059 32.803 21.303 32.7665L21.0886 32.627C21.0449 32.6506 20.9967 32.6646 20.9473 32.6681C20.8978 32.6715 20.8481 32.6643 20.8016 32.6469C20.7812 32.6725 20.7536 32.6913 20.7224 32.7008C20.6912 32.7102 20.6579 32.71 20.6268 32.7001L20.2969 32.926C20.1056 32.926 19.9242 33.0257 19.7296 32.9592C19.7083 32.9847 19.6801 33.0034 19.6484 33.0128C19.6168 33.0223 19.583 33.0221 19.5514 33.0124C19.5304 33.0391 19.5015 33.0584 19.4688 33.0674C19.4362 33.0763 19.4016 33.0745 19.37 33.0622C18.9807 33.1951 18.6146 33.3944 18.1825 33.3413L18.1198 33.4277L17.6976 33.3645C17.5539 33.4374 17.3916 33.4641 17.2324 33.441C17.1744 33.4644 17.1133 33.479 17.051 33.4841H17.018C16.9313 33.4897 16.8458 33.5076 16.764 33.5373H16.797C16.3826 33.7048 15.9456 33.8089 15.5006 33.8463C15.4804 33.872 15.4526 33.8907 15.4212 33.8997C15.3898 33.9086 15.3564 33.9074 15.3258 33.8961C15.2817 33.9471 15.2245 33.985 15.1605 34.0055C15.0965 34.026 15.0282 34.0284 14.9629 34.0124C14.9417 34.0379 14.9132 34.056 14.8813 34.0644C14.8493 34.0727 14.8156 34.0708 14.7848 34.0589C14.7619 34.084 14.732 34.1015 14.6991 34.1092C14.6661 34.1169 14.6316 34.1144 14.6001 34.1021L13.8249 34.4343C13.5841 34.3612 13.3894 34.5207 13.1651 34.5672C13.1432 34.6152 13.1085 34.6562 13.0648 34.6855C13.0211 34.7148 12.9702 34.7314 12.9177 34.7333C12.8727 34.7821 12.816 34.8184 12.753 34.8388C12.6901 34.8591 12.623 34.8629 12.5582 34.8496L12.4724 34.9559L12.38 34.9094C12.3337 34.9559 12.2765 34.99 12.2137 35.0085C12.1509 35.0271 12.0845 35.0296 12.0205 35.0157C11.8392 35.1447 11.632 35.232 11.4135 35.2715C11.367 35.341 11.3048 35.3983 11.2319 35.4387C11.1591 35.4791 11.0777 35.5015 10.9946 35.5041C10.6689 35.7774 10.2968 35.9891 9.89612 36.1287L9.75758 36.3114C9.72078 36.308 9.68436 36.3013 9.64872 36.2915C9.62646 36.3388 9.59274 36.3797 9.55066 36.4105C9.50858 36.4413 9.45949 36.4609 9.40792 36.4675C9.3851 36.5142 9.35058 36.5541 9.30777 36.5832C9.26495 36.6124 9.21533 36.6297 9.16381 36.6336C9.14189 36.6809 9.10819 36.7217 9.06599 36.752C9.02379 36.7822 8.97453 36.801 8.92301 36.8064L8.79106 36.9858C8.75395 36.9923 8.71601 36.9923 8.6789 36.9858L8.54366 37.1984C8.53646 37.1975 8.52916 37.1981 8.52219 37.2001C8.51523 37.2022 8.50876 37.2056 8.50319 37.2103C8.49762 37.215 8.49306 37.2208 8.48981 37.2273C8.48656 37.2338 8.48467 37.241 8.48428 37.2483V37.2782C8.46858 37.2646 8.45001 37.2549 8.43 37.2497C8.40998 37.2445 8.38906 37.244 8.36882 37.2483C8.21708 37.2948 8.21708 37.4974 8.06534 37.5473C7.85423 37.6237 7.86412 37.8795 7.68269 37.9924C7.68409 38.001 7.68372 38.0097 7.68161 38.0181C7.67951 38.0265 7.6757 38.0344 7.67044 38.0413C7.66518 38.0481 7.65858 38.0538 7.65104 38.058C7.6435 38.0622 7.63518 38.0647 7.62662 38.0655C7.43199 38.1586 7.43199 38.3978 7.25056 38.5174L7.12192 38.7001C6.99843 38.9977 6.82051 39.2693 6.59742 39.5008C6.59985 39.5097 6.60039 39.5191 6.599 39.5283C6.59761 39.5375 6.59432 39.5463 6.58935 39.5541C6.58438 39.5619 6.57783 39.5686 6.57013 39.5737C6.56243 39.5788 6.55374 39.5823 6.54464 39.5838C5.92779 40.6669 5.31093 41.7499 4.78643 42.8828C4.59841 43.0954 4.6083 43.4576 4.27843 43.5473C4.2739 43.5648 4.26424 43.5804 4.2507 43.5923C4.23716 43.6042 4.22038 43.6116 4.20256 43.6137C4.1135 43.6503 4.08051 43.7665 3.97825 43.7931C3.88589 43.9825 3.79023 44.1752 3.69456 44.3645C3.69456 44.4908 3.82981 44.5307 3.87269 44.6303H3.91228L3.93867 44.6602C4.04753 44.6602 4.14979 44.73 4.26854 44.6835C4.3311 44.6778 4.39235 44.6621 4.44997 44.637C4.73695 44.637 5.00085 44.5074 5.28454 44.4775C5.44688 44.4841 5.60904 44.4604 5.76285 44.4077L5.93438 44.3579L6.10921 44.2948C6.15647 44.2468 6.21622 44.2132 6.28158 44.198C6.34694 44.1827 6.41526 44.1863 6.47867 44.2084L6.66669 44.1885C6.69836 44.1692 6.7254 44.1431 6.74586 44.112C6.90933 44.1111 7.07011 44.07 7.21428 43.9925C7.24363 44.008 7.27461 44.0203 7.30664 44.029L7.45508 43.8762C7.48859 43.888 7.52465 43.8906 7.55947 43.8836C7.59429 43.8765 7.6266 43.8602 7.65301 43.8363H8.03236C8.05627 43.8126 8.08689 43.7971 8.11999 43.7917C8.15308 43.7863 8.18702 43.7915 8.21708 43.8064C8.25955 43.7798 8.30744 43.7634 8.35716 43.7582C8.40688 43.753 8.45711 43.7593 8.50407 43.7765C8.52784 43.7527 8.55788 43.7363 8.59063 43.7293C8.62338 43.7222 8.65745 43.7248 8.6888 43.7366C8.71191 43.7129 8.74122 43.6963 8.77332 43.6887C8.80542 43.681 8.83902 43.6827 8.87023 43.6934C8.89261 43.6687 8.92192 43.6513 8.9543 43.6436C8.98668 43.6359 9.02062 43.6382 9.05166 43.6503C9.07365 43.6249 9.10278 43.6069 9.13518 43.5986C9.16758 43.5903 9.20173 43.5921 9.23308 43.6037C9.30031 43.5561 9.37688 43.5234 9.45767 43.5079C9.53845 43.4924 9.62158 43.4945 9.7015 43.514C9.72374 43.49 9.7523 43.4729 9.78385 43.4647C9.81539 43.4565 9.84862 43.4574 9.87963 43.4675C9.90339 43.4438 9.93344 43.4274 9.96619 43.4203C9.99893 43.4132 10.033 43.4158 10.0644 43.4277C10.0888 43.4048 10.1193 43.3898 10.1522 43.3845C10.1851 43.3791 10.2188 43.3838 10.2491 43.3978C10.2905 43.369 10.3379 43.3502 10.3876 43.3427C10.4374 43.3352 10.4881 43.3393 10.5361 43.3546C10.5595 43.3313 10.5891 43.3154 10.6213 43.3089C10.6536 43.3024 10.687 43.3056 10.7175 43.318C10.7413 43.2943 10.7713 43.2779 10.8041 43.2708C10.8368 43.2637 10.8709 43.2663 10.9022 43.2782C10.926 43.2556 10.9557 43.2402 10.9877 43.2337C11.0198 43.2273 11.053 43.23 11.0837 43.2416L11.1628 43.142L11.2618 43.1785C11.2777 43.1486 11.3015 43.1238 11.3307 43.1067C11.3598 43.0897 11.3931 43.0812 11.4267 43.0821C11.5335 42.9271 11.6932 42.8171 11.8753 42.7732C11.8992 42.7273 11.9339 42.6881 11.9766 42.6591C12.0192 42.6301 12.0683 42.6122 12.1194 42.6071C12.1416 42.5595 12.1772 42.5196 12.2218 42.4924C12.2664 42.4652 12.318 42.4519 12.3701 42.4542C12.3953 42.4094 12.4304 42.371 12.4728 42.3422C12.5151 42.3134 12.5636 42.2949 12.6143 42.2881C12.6283 42.2565 12.6517 42.23 12.6812 42.2122C12.7107 42.1944 12.7449 42.1861 12.7792 42.1885C12.9606 41.9891 13.2377 41.9858 13.4389 41.8562C13.4728 41.8662 13.5089 41.8662 13.5428 41.8562C13.5767 41.8462 13.6071 41.8266 13.6303 41.7998C13.8249 41.8396 14.003 41.6602 14.2009 41.7532C14.2269 41.7319 14.2584 41.7185 14.2916 41.7144C14.3249 41.7102 14.3586 41.7157 14.389 41.73C14.4102 41.7045 14.4384 41.6859 14.4701 41.6764C14.5017 41.6669 14.5355 41.6671 14.5671 41.6768C14.5846 41.6481 14.6104 41.6253 14.641 41.6117C14.6717 41.598 14.7057 41.5941 14.7386 41.6004C14.7627 41.5549 14.7983 41.5166 14.8417 41.4892C14.8851 41.4618 14.9348 41.4463 14.986 41.4443C15.011 41.399 15.0455 41.3598 15.0871 41.3294C15.1287 41.299 15.1764 41.2781 15.2268 41.2682L15.3852 41.0722C15.4228 41.0907 15.4627 41.1041 15.5039 41.112C15.5253 41.0644 15.5588 41.0233 15.6011 40.9929C15.6435 40.9626 15.693 40.9441 15.7447 40.9393C15.7909 40.8795 15.8371 40.8197 15.88 40.7566C15.9153 40.7722 15.9535 40.7801 15.9921 40.7798L16.0383 40.6436L16.1175 40.5373C16.1379 40.5328 16.1561 40.5215 16.1693 40.5052C16.1825 40.4889 16.1898 40.4686 16.19 40.4476L16.4671 40.4077L16.6156 40.2416C16.6495 40.2366 16.6839 40.2366 16.7178 40.2416L16.8531 40.039C16.8685 40.0316 16.8855 40.0277 16.9026 40.0277C16.9197 40.0277 16.9366 40.0316 16.952 40.039L17.1071 39.8396C17.1355 39.8557 17.1653 39.869 17.1961 39.8795C17.2753 39.7599 17.3479 39.6336 17.5062 39.6037C17.5299 39.5574 17.564 39.5174 17.6058 39.4868C17.6476 39.4562 17.696 39.436 17.747 39.4277C17.7748 39.3606 17.8165 39.3004 17.8695 39.2511C17.9224 39.2018 17.9853 39.1646 18.0538 39.1419C18.0783 39.0728 18.1185 39.0104 18.1712 38.9596C18.2239 38.9088 18.2876 38.8712 18.3573 38.8496C18.4296 38.6732 18.5554 38.5243 18.7169 38.4243L18.9016 38.0921C18.9322 38.0727 18.9554 38.0434 18.9676 38.0091C18.975 38.0207 18.9853 38.0303 18.9974 38.0369C19.0095 38.0436 19.023 38.0471 19.0368 38.0471C19.0506 38.0471 19.0642 38.0436 19.0763 38.0369C19.0884 38.0303 19.0986 38.0207 19.1061 38.0091C19.1031 37.9941 19.1058 37.9786 19.1138 37.9656C19.1218 37.9526 19.1343 37.9432 19.149 37.9393C19.4558 37.7699 19.4294 37.3512 19.7131 37.1685C19.9934 37.0456 19.9572 36.6669 20.2112 36.524C20.3134 36.4908 20.353 36.431 20.3365 36.338H20.3662C20.4817 36.2383 20.5113 36.0655 20.6532 35.9858C20.6505 35.9679 20.6539 35.9496 20.6629 35.9339C20.6719 35.9182 20.6859 35.906 20.7027 35.8994C21.0028 35.7267 20.9831 35.3147 21.2634 35.1253C21.7352 34.627 22.1673 34.0821 22.8039 33.7732C22.8155 33.7387 22.8155 33.7013 22.8039 33.6669L23.1107 33.5273V33.3612L23.1338 33.2416L23.0843 33.1187L22.9392 33.0522ZM10.9748 42.8562C10.9753 42.8485 10.9753 42.8407 10.9748 42.833C10.9788 42.8408 10.9844 42.8476 10.9913 42.8529L10.9748 42.8562ZM11.087 40.3313H11.0408C11.0561 40.3294 11.0716 40.3294 11.087 40.3313ZM12.4724 40.0323L12.4493 40.0124H12.4757L12.4724 40.0323ZM15.4907 40.2117H15.5105H15.4907ZM17.6877 36.9958L17.6613 36.9725L17.6877 36.9924C17.6877 36.9924 17.6877 36.9924 17.6877 36.9958ZM23.3185 29.3745L23.1866 29.2748C22.5913 28.7384 22.0336 28.1612 21.5175 27.5473C21.3657 27.338 21.1348 27.215 20.9996 26.9825C20.96 26.8363 20.7752 26.8297 20.7192 26.7001L20.541 26.5805L19.1523 25.8496L18.9643 25.7134C18.6098 25.3676 18.2116 25.0705 17.78 24.8297L17.7206 24.6735C17.3281 24.5041 17.0609 24.142 16.7145 23.9293C15.8868 23.3798 14.9847 22.9535 14.036 22.6635C13.3136 22.4875 12.6143 22.1486 11.8391 22.3679C11.4857 22.1223 11.0643 21.9955 10.635 22.0057C10.3236 22.0301 10.0108 21.9812 9.72129 21.8629L9.65862 21.926L9.4442 21.8263C9.40419 21.8517 9.35788 21.8652 9.3106 21.8652C9.26333 21.8652 9.21701 21.8517 9.17701 21.8263C9.13628 21.85 9.09065 21.8639 9.0437 21.8667C8.99676 21.8696 8.94979 21.8615 8.90651 21.8429C8.86791 21.8671 8.82422 21.8818 8.77896 21.8858C8.7337 21.8899 8.68813 21.8831 8.64592 21.8662C8.6202 21.8824 8.59048 21.891 8.56015 21.891C8.52982 21.891 8.50009 21.8824 8.47438 21.8662C8.34097 21.9356 8.18596 21.9499 8.04225 21.9061C8.00303 21.9335 7.95641 21.9482 7.90866 21.9482C7.8609 21.9482 7.81428 21.9335 7.77506 21.9061C7.7319 21.9258 7.68454 21.9342 7.63729 21.9308C7.59004 21.9273 7.54441 21.9119 7.50456 21.8861L7.32643 21.9459C7.29907 21.9263 7.27041 21.9085 7.24067 21.8928L7.17799 21.9692L7.07573 21.9293L7.01306 22.0157C6.97683 22.0089 6.94217 21.9953 6.9108 21.9758C6.88951 22.005 6.86637 22.0327 6.84153 22.0589C6.82623 22.0476 6.80774 22.0414 6.78875 22.0414C6.76976 22.0414 6.75126 22.0476 6.73597 22.0589L6.6502 22.0024C6.62725 22.022 6.59923 22.0346 6.56944 22.0387C6.53965 22.0428 6.50931 22.0383 6.48197 22.0257L6.24446 22.1287L5.78594 22.0755C5.59819 22.1499 5.39705 22.1838 5.19547 22.1752C5.17207 22.1953 5.14326 22.2079 5.11272 22.2114C5.08217 22.215 5.05127 22.2093 5.02394 22.1951C4.68333 22.3424 4.32129 22.4333 3.95186 22.4642L3.89249 22.5439L3.78363 22.5074C3.76461 22.5308 3.73857 22.5473 3.70942 22.5545C3.68027 22.5617 3.64959 22.5591 3.62199 22.5473L3.55932 22.6436C3.38449 22.6436 3.20966 22.7699 3.03153 22.6436C3.00934 22.6645 2.98145 22.6782 2.95146 22.6829C2.92147 22.6876 2.89076 22.6832 2.86329 22.6702C2.68186 22.8463 2.45755 22.6702 2.26293 22.7532L2.16067 22.6901C2.13494 22.7105 2.11069 22.7327 2.0881 22.7566L1.85059 22.73C1.87628 22.7181 1.89639 22.6967 1.90667 22.6702C1.89154 22.6767 1.87528 22.68 1.85884 22.68C1.8424 22.68 1.82613 22.6767 1.81101 22.6702L1.75163 22.7233C1.74062 22.7098 1.73069 22.6953 1.72194 22.6802C1.69437 22.6559 1.66076 22.6397 1.62473 22.6333C1.58869 22.6268 1.55159 22.6304 1.51742 22.6436C1.42836 22.6436 1.33929 22.5905 1.24693 22.6436C1.19033 22.6503 1.13416 22.6603 1.07869 22.6735C0.992928 22.72 0.897266 22.637 0.8115 22.6735C0.751175 22.6729 0.691846 22.689 0.639967 22.72H0.659759C0.60182 22.7265 0.54575 22.7446 0.494824 22.7732C0.392564 22.7732 0.356279 22.8961 0.267214 22.9227C0.180665 22.9803 0.110508 23.0596 0.0636551 23.1528C0.0168021 23.246 -0.00513029 23.3499 1.90235e-05 23.4542C0.00410853 23.5139 0.0186256 23.5724 0.0429021 23.627C0.0532459 23.693 0.0831375 23.7544 0.128668 23.8031L0.168253 23.8197L0.191344 23.8529C0.257318 23.9991 0.412357 24.0223 0.521214 24.0988C0.548264 24.0941 0.574083 24.0839 0.597084 24.0689C0.597084 24.0689 0.597084 24.0689 0.597084 24.0888C0.597084 24.1087 0.636668 24.1885 0.659759 24.2383L1.91327 24.9227L2.37508 25.3081C2.37508 25.3446 2.37508 25.3778 2.37508 25.4111C2.40147 25.5639 2.5961 25.5572 2.63568 25.6968C2.66537 25.8463 2.85999 25.8396 2.89958 25.9825C2.92927 26.132 3.12389 26.1253 3.16017 26.2649C3.20306 26.4111 3.38119 26.4111 3.44056 26.5406C3.70441 26.8508 3.98757 27.1437 4.28833 27.4177C4.39719 27.6702 4.73366 27.6336 4.85901 27.8695L7.22747 29.2915H7.27036L7.30005 29.328C7.64971 29.3479 7.87072 29.7167 8.23688 29.6901C8.46119 29.6901 8.60303 29.9194 8.83394 29.8861H8.87682L8.90651 29.9194C8.97723 29.9342 9.04887 29.9442 9.12093 29.9493H9.13742C9.16883 29.9931 9.21158 30.0274 9.26102 30.0485C9.31045 30.0696 9.36468 30.0767 9.41781 30.0689H9.46399L9.49698 30.0988C9.55636 30.122 9.58605 30.0988 9.58275 30.039L9.89282 30.1785C10.1006 30.1765 10.3042 30.2379 10.4767 30.3546C10.5386 30.3333 10.6046 30.327 10.6694 30.3362C10.7342 30.3454 10.7959 30.37 10.8494 30.4077C11.0651 30.3724 11.2862 30.3965 11.4894 30.4775C11.7127 30.4309 11.9451 30.4613 12.1491 30.5639C12.373 30.5275 12.6026 30.5587 12.8089 30.6536C12.8681 30.6297 12.9319 30.62 12.9954 30.6252C13.059 30.6304 13.1204 30.6503 13.175 30.6835C13.2166 30.6629 13.2623 30.6523 13.3086 30.6523C13.3549 30.6523 13.4006 30.6629 13.4422 30.6835C13.6344 30.6184 13.8367 30.5891 14.0393 30.5971C14.1776 30.5463 14.3271 30.5348 14.4714 30.5639C14.6027 30.4963 14.7538 30.4786 14.897 30.514C14.9183 30.4918 14.946 30.4769 14.9762 30.4715C15.0065 30.4662 15.0376 30.4706 15.0652 30.4841C15.1287 30.4429 15.2011 30.4177 15.2764 30.4108C15.3516 30.4038 15.4274 30.4153 15.4973 30.4443L15.5633 30.3546C15.7949 30.3928 16.031 30.3928 16.2626 30.3546L16.9487 30.3911C17.0185 30.4057 17.0912 30.3933 17.1524 30.3564C17.2135 30.3194 17.2586 30.2607 17.2786 30.1918L17.371 30.112C17.7206 30.112 18.0934 30.2051 18.3276 29.823L19.3172 29.4908C19.5382 29.6835 19.8351 29.6503 20.0858 29.7532C20.2738 29.6868 20.4652 29.6303 20.6466 29.5539C20.8251 29.4587 21.0307 29.4282 21.2289 29.4676C21.4271 29.5069 21.6058 29.6136 21.7352 29.7699C21.836 29.8966 21.9712 29.9913 22.1244 30.0423L22.3685 30.0954H22.5203L22.9062 30.0755L23.0579 30.0522L23.2097 29.9891H23.2955L23.4703 29.8363L23.4208 29.7366L23.4868 29.5406L23.3185 29.3745ZM9.21329 27.627L9.23638 27.6469L9.21329 27.627ZM9.46729 24.8562L9.46069 24.8695L9.46729 24.8562ZM10.7868 26.5174C10.7737 26.5204 10.7602 26.5204 10.7472 26.5174C10.7614 26.5196 10.7759 26.5196 10.7901 26.5174H10.7868ZM11.0573 22.4509H11.0276C11.0506 22.4292 11.0761 22.4103 11.1034 22.3944L11.0573 22.4509ZM15.9327 29.8529C15.9327 29.8529 15.9327 29.8529 15.9525 29.8529H15.9327ZM16.8168 28.1918C16.8226 28.1813 16.8292 28.1713 16.8366 28.1619C16.8366 28.1619 16.8366 28.1851 16.8366 28.1984L16.8168 28.1918ZM17.9417 27.1087H17.9614H17.9417Z" fill="#84BD00"/>
<path d="M127 16.6076C126.875 15.6109 126.152 15.4747 125.489 15.5279C125.064 15.5611 123.47 15.9265 122.062 16.1923C120.742 16.3917 119.423 16.5245 117.998 16.6508L117.764 16.6707C117.8 15.5457 117.905 14.424 118.077 13.3119C118.212 12.131 118.248 10.9408 118.186 9.75378C117.872 5.70062 115.86 4.94647 114.204 5.07604C113.31 5.16682 112.441 5.4296 111.645 5.85012C110.932 5.9066 110.559 9.74713 110.523 16.7073C108.514 16.5777 106.495 16.3518 104.374 16.0428C103.992 16.0428 103.658 16.0029 103.421 16.0196C103.307 16.0223 103.195 16.0483 103.091 16.096C102.807 16.1159 102.362 17.7338 102.395 18.1657C102.409 18.3122 102.452 18.4544 102.52 18.5843C102.72 18.9339 103.005 19.2265 103.348 19.4348C104.78 20.0993 107.422 20.3618 110.516 20.3152C110.546 29.3784 110.892 35.5976 111.486 43.3219C111.885 48.5179 112.407 52.1724 112.915 52.6242C113.242 52.9296 113.628 53.1638 114.049 53.3124C114.47 53.461 114.917 53.5208 115.362 53.488C117.447 53.3252 119.172 50.983 119.133 47.9631C118.938 39.8701 117.698 30.6873 117.717 19.8103C121.069 19.4049 124.262 18.8136 126.439 18.0262C126.766 17.9697 127.043 17.2289 127 16.6076Z" fill="#231F20"/>
<path d="M66.9207 44.7671C69.0055 44.6043 71.5092 40.6176 73.0068 35.3186C73.6468 43.6641 76.3748 47.5312 79.5481 47.2787C82.3355 47.0628 85.2087 43.0163 87.4452 38.8734C87.0956 41.3618 86.9009 43.1923 87.0032 44.4913C87.1747 46.7339 88.2237 47.3717 90.734 47.1757C92.5351 47.0329 93.5709 43.787 94.1185 39.7604C97.9483 29.4847 99.7692 25.8867 100.386 25.8402C100.765 25.8103 100.92 26.5644 101.016 27.8036C101.26 30.9996 100.901 37.4581 101.254 42.0894C101.442 44.5246 102.623 46.2555 103.711 46.1691C105.69 46.0129 107.165 44.6043 106.848 40.5046C106.551 36.6408 106.4 33.4382 106.188 30.8136C105.713 24.6143 104.981 21.9365 101.669 22.1957C98.9676 22.405 96.609 25.8036 94.7947 29.4482V25.0893C94.6001 22.5611 92.9969 21.5345 91.6247 21.6408C91.1313 21.6623 90.6597 21.8513 90.2866 22.177C89.9135 22.5028 89.6607 22.9461 89.5696 23.4349C89.3453 25.4282 89.1111 27.282 88.8802 28.9864C88.7765 29.136 88.685 29.2937 88.6064 29.4581L87.2044 32.302C85.3011 36.0495 82.3784 41.4116 80.7225 41.5412C80.3431 41.5711 80.1056 39.0927 79.436 30.4116C79.0071 24.7837 75.5402 23.5678 74.5506 23.6475C74.4088 23.6475 74.2702 23.7173 74.1284 23.7272C73.8275 23.5202 73.4579 23.4403 73.0992 23.5046C70.0677 23.7438 62.1607 28.1026 63.015 39.2123C63.0678 39.8767 63.1371 40.4382 63.2229 40.9498C62.4312 43.6608 61.2436 45.4149 60.2969 46.0129C60.1899 46.0963 60.0671 46.1567 59.9361 46.1905C59.805 46.2242 59.6685 46.2305 59.5349 46.209C58.8191 46.0295 57.2258 43.7804 56.2362 36.601C62.8336 24.684 63.3449 11.7638 58.4595 6.4847C57.0609 4.97307 55.8602 5.03287 55.1015 5.34849C51.0309 7.04284 50.3843 21.2289 50.6086 28.488C50.6828 30.9594 50.8809 33.4255 51.2024 35.8767C49.553 39.0495 46.8943 43.3219 43.4043 46.3153C45.0536 43.4548 45.2119 40.0827 44.981 37.0761C44.572 31.7339 41.9693 28.8668 36.8069 29.2721C34.7221 29.4382 33.3168 30.8933 32.3272 32.807C31.4893 30.7472 29.8565 28.0927 27.3792 28.2854C25.7694 28.4116 24.5918 29.797 24.6907 31.086C24.7963 32.4681 26.8349 45.3717 26.8349 45.3717C29.4079 70.1691 31.2617 70.1192 31.2617 70.1192C31.9339 70.667 32.7927 70.9271 33.6533 70.8435C35.5468 70.6973 37.1862 69.0827 37.3544 67.5212C37.441 66.6919 37.441 65.8556 37.3544 65.0262C37.0246 60.591 35.4709 53.5146 35.4709 53.5146C35.3785 52.9465 35.3455 52.5179 35.3059 51.993C35.4233 51.9404 35.5503 51.9133 35.6787 51.9133C35.9624 51.8933 36.4407 51.9133 36.9982 51.8601C40.2969 51.601 47.2505 50.1026 52.2448 41.2688C53.4983 45.8269 55.6062 49.3817 59.0995 50.0661C59.4847 50.1461 59.8771 50.1862 60.2705 50.1857C61.3857 50.1968 62.47 49.8175 63.3383 49.1126C64.6248 48.0761 65.4198 46.4382 65.8519 44.7937C66.2082 44.8178 66.566 44.8089 66.9207 44.7671ZM72.6341 26.7604C72.6094 26.9033 72.6094 27.0494 72.6341 27.1923C72.3042 29.6674 69.0055 39.6608 67.5508 39.7771C67.2209 39.8003 66.9933 39.3385 66.891 38.1492C66.3599 31.2887 72.6341 26.7704 72.6341 26.7704V26.7604ZM34.7815 47.5212C34.1217 42.2953 33.6467 38.9764 33.2377 36.7538C33.5675 35.6707 34.6396 32.7073 36.6782 32.5511C37.7668 32.4648 38.5453 32.6907 38.8092 36.1259C39.2017 41.2289 38.7828 44.4349 34.7815 47.5212ZM55.7282 29.6242C55.6999 29.5714 55.6667 29.5214 55.6292 29.4747C55.5864 28.6342 55.5501 27.7671 55.5303 26.8668C55.3357 20.0528 55.9096 14.1857 56.477 11.4249C57.6342 17.4676 57.3778 23.6987 55.7282 29.6242Z" fill="#231F20"/>
<path d="M62.7711 61.0628C62.4412 57.5346 61.9959 56.013 60.1091 56.1957C58.5719 56.3419 57.259 58.302 56.2595 60.3983L56.2166 57.91C56.0813 56.4681 55.1577 55.9 54.3759 55.9764C54.0951 55.9927 53.828 56.1044 53.6183 56.2932C53.4086 56.4821 53.2687 56.737 53.2214 57.0163C52.588 63.5977 51.7897 67.2355 51.9613 69.0561C52.08 70.3319 52.6837 70.6874 54.1153 70.5512C55.1379 70.4515 55.6987 68.591 55.9725 66.2887C58.0573 60.3817 59.0469 58.3219 59.4064 58.2887C59.6241 58.2688 59.7198 58.6973 59.7858 59.405C59.9573 61.2223 59.8122 64.91 60.0629 67.5445C60.1915 68.9266 60.881 69.9033 61.5011 69.8435C62.6359 69.7372 63.4572 68.9166 63.2362 66.5811C63.0284 64.3684 62.9096 62.5578 62.7711 61.0628Z" fill="#231F20"/>
<path d="M96.7014 59.1492C96.6873 59.1414 96.6751 59.1304 96.6658 59.1172C96.6564 59.1039 96.6503 59.0887 96.6477 59.0726C96.6452 59.0566 96.6463 59.0402 96.6511 59.0247C96.6558 59.0091 96.664 58.9949 96.675 58.9831C99.0072 56.5246 102.656 52.2189 102.596 51.601C102.517 50.7538 101.488 50.7339 101.382 50.7339H101.362C100.469 50.8369 98.1627 53.6442 96.5035 56.2688C96.4889 56.2884 96.4682 56.3025 96.4447 56.3089C96.4212 56.3153 96.3963 56.3136 96.3739 56.304C96.3515 56.2944 96.3329 56.2776 96.3211 56.2562C96.3093 56.2347 96.305 56.2099 96.3089 56.1857C96.995 52.5013 97.4436 49.8103 97.404 49.395C97.3414 48.7306 96.9851 47.2721 95.2863 47.4349C94.2373 47.5346 92.9772 48.3385 92.7166 50.1724C92.6143 50.8601 92.0997 53.2821 91.6808 56.0827C91.1464 56.8369 90.457 58.1193 90.457 58.1193C88.9858 60.6973 86.4392 64.5844 84.2554 64.7937C83.4208 64.8734 82.5038 64.3851 82.3257 62.4847C82.0255 59.3086 83.1569 55.7206 84.0476 55.6342C84.9382 55.5478 85.1527 55.8302 85.5188 55.9664C85.607 56.0022 85.7009 56.0213 85.7959 56.0229C85.8841 56.012 85.9657 55.97 86.0261 55.9043C86.0864 55.8386 86.1218 55.7535 86.1258 55.6641C86.0829 55.2023 85.3935 53.9532 82.4543 54.2322C80.805 54.3884 79.9737 55.9698 79.5581 57.7671C79.5152 57.8435 79.4888 57.9 79.4822 57.9133L78.7103 59.5478C77.6613 61.704 76.0482 64.7904 75.1048 64.8801C74.8904 64.9 74.7288 63.4914 74.2637 58.5478C73.9635 55.3452 71.9546 54.6841 71.4037 54.7405C71.3212 54.7405 71.242 54.7837 71.1629 54.7904C70.9899 54.6786 70.7804 54.6392 70.579 54.6807C68.8538 54.8468 64.3906 57.4083 64.9712 63.7372C65.2846 67.0595 66.416 66.9432 67.2539 66.8635C68.4381 66.7505 69.8269 64.4515 70.6285 61.415C71.0771 66.1691 72.6704 68.3452 74.4781 68.1724C76.1868 68.0096 77.9087 65.312 79.1754 62.7505C79.1754 62.9731 79.1985 63.1392 79.2084 63.2289C79.2876 64.0694 79.6273 67.6807 83.5363 67.3086C87.4453 66.9366 89.8434 63.5146 91.1794 60.5246C91.0934 61.6414 91.0934 62.7633 91.1794 63.8801C91.341 65.591 91.8391 66.7206 92.8518 66.6243C93.6138 66.5512 94.4286 64.2987 95.1609 61.395C96.4804 63.6807 98.4596 66.5279 99.4262 66.7106H99.5878C100.089 66.7106 100.831 66.5113 100.953 65.7472C101.062 65.0827 98.3871 61.4814 96.6355 59.2455L96.7014 59.1492ZM70.3349 56.7804C70.1667 58.1924 68.3953 63.9233 67.5574 64.003C67.3694 64.0229 67.2275 63.7605 67.1714 63.0827C66.8053 59.1724 70.3382 56.5312 70.3382 56.5312C70.3223 56.6134 70.3211 56.6978 70.3349 56.7804Z" fill="#231F20"/>
<path d="M46.9866 63.0396C45.7298 62.1758 44.6412 61.4316 44.5423 60.3618C44.4466 59.3652 44.8721 59.1957 45.2647 59.0329C47.2109 58.2655 48.3358 60.2721 48.3819 60.3618L48.4017 60.3951L48.4347 60.4183C48.5194 60.4791 48.6181 60.5172 48.7214 60.5288C48.8247 60.5404 48.9293 60.5253 49.0252 60.4848C49.2099 60.3718 49.2792 60.126 49.2396 59.7273C49.0945 58.2921 47.5474 56.8768 45.3043 57.0927C42.9556 57.3153 41.7417 59.4582 41.9264 61.4117C42.1012 63.2854 43.546 64.4017 44.9381 65.4648C46.1355 66.3851 47.2637 67.2522 47.3824 68.5047C47.5012 69.7572 46.472 70.1658 45.8485 70.2987C45.4589 70.387 45.0553 70.3933 44.6631 70.3172C44.2709 70.2412 43.8985 70.0845 43.5691 69.8568C43.2771 69.6315 43.0372 69.3447 42.8663 69.0166C42.6954 68.6884 42.5976 68.3266 42.5795 67.9565C42.4838 67.3522 42.5209 66.7341 42.6884 66.1459L42.7049 66.1093V66.0695C42.6752 65.7838 42.2101 65.6276 41.8076 65.6675C40.8774 65.7572 39.9703 66.8701 40.1253 68.5113C40.1769 69.0968 40.3434 69.6661 40.6152 70.1862C40.887 70.7064 41.2587 71.1669 41.7087 71.5412C42.5844 72.2497 43.6799 72.6249 44.8029 72.601C44.9975 72.601 45.1921 72.601 45.39 72.5711C47.013 72.4183 48.3589 71.9067 49.3023 71.0595C49.7792 70.6497 50.1489 70.1281 50.379 69.5408C50.609 68.9534 50.6924 68.3181 50.6218 67.6907C50.4041 65.3652 48.5898 64.126 46.9866 63.0396Z" fill="#231F20"/>
<path d="M108.442 57.3618C107.185 56.498 106.099 55.7538 105.997 54.6807C105.902 53.684 106.327 53.5179 106.72 53.3518C108.669 52.591 109.791 54.591 109.837 54.6807L109.857 54.7173L109.89 54.7372C109.974 54.7989 110.072 54.8377 110.176 54.8499C110.279 54.8621 110.384 54.8473 110.48 54.807C110.665 54.694 110.734 54.4448 110.695 54.0495C110.549 52.6143 108.999 51.199 106.759 51.4116C106.236 51.4575 105.73 51.617 105.274 51.8791C104.819 52.1412 104.425 52.4997 104.12 52.9299C103.554 53.7426 103.292 54.7316 103.381 55.7206C103.556 57.5977 105.001 58.7106 106.396 59.7771C107.59 60.694 108.705 61.5644 108.837 62.8169C108.969 64.0694 107.927 64.4781 107.303 64.6109C106.914 64.6984 106.51 64.7043 106.118 64.6283C105.726 64.5523 105.354 64.396 105.024 64.1691C104.732 63.9434 104.493 63.6566 104.322 63.3285C104.151 63.0004 104.053 62.6388 104.034 62.2688C103.941 61.6644 103.978 61.0467 104.143 60.4581L104.16 60.4183V60.3817C104.148 60.296 104.103 60.2186 104.034 60.1658C103.809 60.0105 103.534 59.9443 103.263 59.9797C102.332 60.0694 101.425 61.1791 101.58 62.8236C101.778 64.9266 103.434 66.9133 106.248 66.9133C106.439 66.9133 106.64 66.9133 106.848 66.8834C108.468 66.7272 109.817 66.2189 110.757 65.3684C111.234 64.9595 111.604 64.4386 111.834 63.8517C112.064 63.2648 112.148 62.6299 112.077 62.003C111.859 59.7173 110.045 58.4615 108.442 57.3618Z" fill="#231F20"/>
<path d="M118.305 64.4615C118.298 64.9198 118.156 65.3658 117.898 65.7434C117.64 66.121 117.277 66.4134 116.854 66.5838C116.432 66.7542 115.969 66.7951 115.523 66.7013C115.078 66.6075 114.67 66.3832 114.35 66.0565C114.031 65.7299 113.815 65.3155 113.729 64.8654C113.642 64.4153 113.69 63.9496 113.866 63.5268C114.042 63.1039 114.338 62.7429 114.717 62.4889C115.096 62.2349 115.541 62.0994 115.996 62.0994C116.612 62.1072 117.2 62.3598 117.633 62.8021C118.065 63.2444 118.307 63.8408 118.305 64.4615ZM117.856 64.4615C117.851 64.0886 117.736 63.7257 117.527 63.4183C117.317 63.1108 117.022 62.8727 116.679 62.7338C116.335 62.5949 115.958 62.5614 115.596 62.6376C115.233 62.7138 114.901 62.8962 114.642 63.1619C114.382 63.4277 114.206 63.7648 114.136 64.131C114.066 64.4972 114.105 64.876 114.249 65.2198C114.392 65.5636 114.633 65.8571 114.942 66.0632C115.25 66.2694 115.612 66.3791 115.982 66.3784C116.231 66.3789 116.477 66.3294 116.707 66.2329C116.936 66.1364 117.144 65.9947 117.319 65.8162C117.493 65.6377 117.631 65.426 117.723 65.1933C117.815 64.9607 117.861 64.7119 117.856 64.4615ZM116.349 64.7306L117.008 65.6941H116.54L115.923 64.7705H115.564V65.6974H115.174V63.2024H116.068C116.177 63.1887 116.287 63.1995 116.39 63.234C116.494 63.2686 116.589 63.3259 116.668 63.402C116.747 63.478 116.808 63.5708 116.847 63.6736C116.886 63.7764 116.902 63.8867 116.893 63.9964C116.905 64.1642 116.856 64.3307 116.756 64.4654C116.656 64.6002 116.512 64.6943 116.349 64.7306ZM115.57 64.3984H115.982C116.349 64.3984 116.487 64.2057 116.487 63.9764C116.488 63.9157 116.476 63.8554 116.452 63.7997C116.428 63.7441 116.392 63.6943 116.347 63.654C116.302 63.6136 116.248 63.5835 116.191 63.5658C116.133 63.548 116.072 63.543 116.012 63.5512H115.57V64.3984Z" fill="#231F20"/>
</g>
<defs>
<clipPath id="clip0">
<rect width="127" height="72" fill="white" transform="translate(0 0.581055)"/>
</clipPath>
</defs>
</svg>
